<?xml version="1.0" encoding="utf-8"?>
<!-- Generator: Adobe Illustrator 23.0.3, SVG Export Plug-In . SVG Version: 6.00 Build 0)  -->
<svg version="1.1" id="Capa_1" xmlns="http://www.w3.org/2000/svg" xmlns:xlink="http://www.w3.org/1999/xlink" x="0px" y="0px"
	 viewBox="0 0 480 480" style="enable-background:new 0 0 480 480;" xml:space="preserve">
<style type="text/css">
	.st0{fill:#EE4540;}
</style>
<path class="st0" d="M184,16h41.1l-7.7,11.6c-1.8,2.7-1.8,6.2,0,8.9l7.7,11.6H184V16z"/>
<polygon class="st0" points="240,106.2 272.9,173.5 240,240.9 207.2,173.5 "/>
<path class="st0" d="M20.8,464L176,146.2l55.1,112.8l-17.2,35.2l-30.6-65.7c-1.9-4-6.6-5.7-10.6-3.9c-1.7,0.8-3.1,2.2-3.9,3.9
	L58.9,464H20.8z"/>
<path class="st0" d="M76.6,464L176,250.9l30.5,65.3c1.3,2.8,4.1,4.6,7.2,4.6c3.1,0,5.9-1.7,7.3-4.5L304,146.2L459.2,464L76.6,464
	L76.6,464z"/>
</svg>
