<svg id="Layer_1" data-name="Layer 1" xmlns="http://www.w3.org/2000/svg" xmlns:xlink="http://www.w3.org/1999/xlink" viewBox="0 0 504 288"><defs><style>.cls-1{fill:none;}.cls-2{clip-path:url(#clip-path);}.cls-3{fill:#ababab;}.cls-4{fill:#fff;}.cls-5{fill:#bbb;}.cls-6{fill:gray;}.cls-7{fill:#636363;}</style><clipPath id="clip-path"><rect class="cls-1" width="504" height="288"/></clipPath></defs><title>Artboard 93</title><g class="cls-2"><path class="cls-3" d="M466.28,18.64h0l-63.71-1.32a.12.12,0,0,1-.11-.07.14.14,0,0,1,0-.14l36.6-46a.12.12,0,0,1,.14,0,.12.12,0,0,1,.07.07l27.1,47.3a.15.15,0,0,1,0,.13A.14.14,0,0,1,466.28,18.64Zm-63.45-1.57,63.23,1.32-26.9-47Z"/><path class="cls-3" d="M402.57,17.32h-.05a.13.13,0,0,1-.07-.14l3.9-19.89a.1.1,0,0,1,0-.07l32.7-26.1a.14.14,0,0,1,.13,0,.13.13,0,0,1,.08.12h0a.16.16,0,0,1,0,.09l-36.6,46A.12.12,0,0,1,402.57,17.32Zm4-19.94-3.79,19.33L438.39-28Z"/><path class="cls-3" d="M466.28,18.64h-.06a.12.12,0,0,1-.06-.14L470.22-.24a.1.1,0,0,1,.06-.08L500.18-17a.11.11,0,0,1,.07,0h0a.12.12,0,0,1,.12.1.11.11,0,0,1,0,.13l-34,35.36A.12.12,0,0,1,466.28,18.64ZM470.45-.13l-4,18.24,33.09-34.46Z"/><path class="cls-3" d="M466.28,18.64h0a.15.15,0,0,1-.09-.06l-27.1-47.32a.12.12,0,0,1,0-.13.13.13,0,0,1,.13-.05L500.28-17a.14.14,0,0,1,.1.14.16.16,0,0,1-.05.09l-34,35.36A.12.12,0,0,1,466.28,18.64ZM439.42-28.62,466.3,18.31,500-16.79Z"/><path class="cls-3" d="M494,3.37h0L470.33-.09a.13.13,0,0,1-.11-.12.13.13,0,0,1,.1-.13l66-11a.13.13,0,0,1,.13,0,.14.14,0,0,1,0,.13.14.14,0,0,1-.1.08h0L494,3.37ZM471.15-.22,494,3.12l40.92-14Z"/><path class="cls-3" d="M394.55,38.29a.14.14,0,0,1-.09,0,.14.14,0,0,1,0-.14l8-20.95s0,0,0-.05a.11.11,0,0,1,.15,0l22.43,9.72a.14.14,0,0,1,.07.12A.11.11,0,0,1,425,27L394.59,38.29Zm8.1-20.93L394.76,38l29.9-11Z"/><path class="cls-3" d="M442.13,40.19a.11.11,0,0,1-.07,0L424.92,27a.12.12,0,0,1,0-.13.11.11,0,0,1,.09-.09l41.27-8.4a.12.12,0,0,1,.16.1.11.11,0,0,1,0,.12L442.22,40.16A.16.16,0,0,1,442.13,40.19ZM425.29,27,442.13,39.9l23.72-21.17Z"/><path class="cls-3" d="M425,27H425l-22.43-9.72a.14.14,0,0,1-.07-.14.13.13,0,0,1,.12-.1h0l63.7,1.32a.12.12,0,0,1,.12.11.12.12,0,0,1-.09.14L425,27Zm-21.79-9.71L425,26.79l40.14-8.17Z"/><path class="cls-3" d="M481.07,52.27h0L442.1,40.18A.13.13,0,0,1,442,40L470.24-.28a.07.07,0,0,1,.05,0h0a.2.2,0,0,1,.11,0,.16.16,0,0,1,.07.09l10.72,52.36a.11.11,0,0,1,0,.12A.11.11,0,0,1,481.07,52.27ZM442.33,40l38.58,12L470.28.09Z"/><path class="cls-3" d="M442.13,40.19a.11.11,0,0,1-.08,0,.12.12,0,0,1,0-.17L470.24-.28a.07.07,0,0,1,.05,0h0a.13.13,0,0,1,.13,0,.12.12,0,0,1,.05.12L466.4,18.54a.16.16,0,0,1,0,.07L442.22,40.16A.16.16,0,0,1,442.13,40.19Zm28-39.83L442.85,39.25l23.31-20.8Z"/><path class="cls-3" d="M529.15,57.23h0l-48.07-5a.11.11,0,0,1-.09-.05.12.12,0,0,1,0-.1L493.87,3.21a.13.13,0,0,1,.14-.09.18.18,0,0,1,.1.07L529.25,57a.11.11,0,0,1,0,.13A.11.11,0,0,1,529.15,57.23ZM481.23,52,528.9,57,494,3.55Z"/><path class="cls-3" d="M481.07,52.27h0a.12.12,0,0,1-.12-.1L470.22-.19a.14.14,0,0,1,0-.11.11.11,0,0,1,.11,0L494,3.12h0a.13.13,0,0,1,.11.13h0a.06.06,0,0,1,0,0L481.19,52.18A.11.11,0,0,1,481.07,52.27ZM470.5-.06,481.09,51.6,493.84,3.35Z"/><path class="cls-3" d="M427.8,75.2a.12.12,0,0,1-.1,0,.13.13,0,0,1,0-.12L442,40a.12.12,0,0,1,.11-.08.11.11,0,0,1,.11.07h0l8.59,33.73a.14.14,0,0,1,0,.11l-.09.05-22.91,1.3Zm14.31-34.74L428,74.94l22.56-1.29Z"/><path class="cls-3" d="M450.71,73.9a.14.14,0,0,1-.11-.07.12.12,0,0,1,0-.16L481,52.06a.2.2,0,0,1,.08,0,.14.14,0,0,1,.1,0,.18.18,0,0,1,0,.1.16.16,0,0,1,0,.07l-6.83,10.43a.12.12,0,0,1-.05.05L450.76,73.88ZM480.6,52.64,451.94,73.05l22.2-10.56Z"/><path class="cls-3" d="M450.71,73.9h0a.14.14,0,0,1-.08-.09L442,40.1a.12.12,0,0,1,0-.13.13.13,0,0,1,.12,0L481.11,52s0,0,.05,0a.18.18,0,0,1,0,.1.15.15,0,0,1-.06.09L450.78,73.87A.11.11,0,0,1,450.71,73.9Zm-8.4-33.65,8.47,33.31,30-21.37Z"/><path class="cls-3" d="M533.87,79.05h0L474.19,62.71a.13.13,0,0,1-.09-.13.12.12,0,0,1,.11-.11L529.13,57a.12.12,0,0,1,.1,0,.13.13,0,0,1,0,.1h0L534,78.9a.11.11,0,0,1,0,.12A.11.11,0,0,1,533.87,79.05Zm-59-16.4,58.79,16.1-4.65-21.51Z"/><path class="cls-3" d="M474.23,62.72a.14.14,0,0,1-.11-.06.14.14,0,0,1,0-.14L481,52.08a.11.11,0,0,1,.11-.06l48.06,5a.16.16,0,0,1,.09,0,.13.13,0,0,1,0,.1h0a.11.11,0,0,1,0,.09.16.16,0,0,1-.09,0l-54.9,5.49Zm6.9-10.44-6.66,10.16,53.43-5.33Z"/><path class="cls-3" d="M447.12,118.12h0L390,99.68a.12.12,0,0,1-.08-.11.12.12,0,0,1,.07-.13l60.72-25.79a.15.15,0,0,1,.14,0h0a.12.12,0,0,1,0,.1L447.24,118a.12.12,0,0,1-.05.1ZM390.35,99.54,447,117.83,450.57,74Z"/><path class="cls-3" d="M390,99.69a.14.14,0,0,1-.11-.07.12.12,0,0,1,0-.16L427.73,75l.06,0,22.89-1.3a.13.13,0,0,1,.12,0h0a.17.17,0,0,1,0,.14.16.16,0,0,1-.09.07L390,99.68ZM427.84,75.2,391.27,98.88,450,73.94Z"/><path class="cls-3" d="M447.12,118.12a.11.11,0,0,1-.08,0,.11.11,0,0,1,0-.15l27.1-55.4,0,0h0a.12.12,0,0,1,.13,0,.11.11,0,0,1,.08.11l1,33.52a.15.15,0,0,1,0,.11l-28.1,21.87A.13.13,0,0,1,447.12,118.12Zm27-55-26.65,54.46,27.62-21.5Z"/><path class="cls-3" d="M447.12,118.12h0a.13.13,0,0,1-.1-.13l3.59-44.22a.16.16,0,0,1,.08-.1l23.51-11.18a.13.13,0,0,1,.16,0,.12.12,0,0,1,0,.14l-27.1,55.39A.12.12,0,0,1,447.12,118.12Zm3.71-44.27-3.53,43.49L474,62.86Z"/><path class="cls-3" d="M519.79,109.76h0L475.18,96.24a.14.14,0,0,1-.09-.12.12.12,0,0,1,.09-.12l58.65-17.2a.14.14,0,0,1,.15.06.15.15,0,0,1,0,.13l-14.08,30.7A.12.12,0,0,1,519.79,109.76ZM475.66,96.12l44.06,13.37,13.92-30.37Z"/><path class="cls-3" d="M475.22,96.24a.08.08,0,0,1-.07,0,.11.11,0,0,1-.06-.1l-1-33.52a.16.16,0,0,1,0-.11.14.14,0,0,1,.11,0L533.88,78.8a.17.17,0,0,1,.1.06.12.12,0,0,1,0,.15h0l-.07,0L475.25,96.24Zm-.86-33.48,1,33.19,58.07-17Z"/><path class="cls-3" d="M424.05,140.07H424l-36.24-16.28a.13.13,0,0,1-.08-.13l2.19-24.1a.11.11,0,0,1,.06-.1.11.11,0,0,1,.11,0h0l0,0,34.05,40.38a.13.13,0,0,1,0,.16A.14.14,0,0,1,424.05,140.07Zm-36.11-16.48,35.66,16L390.09,99.87Z"/><path class="cls-3" d="M424.05,140.07a.12.12,0,0,1-.11-.07.12.12,0,0,1,0-.15L447,117.9a.15.15,0,0,1,.18,0h0a.11.11,0,0,1,0,.07l2.7,15.57a.13.13,0,0,1-.1.15l-25.76,6.37Zm23-21.83-22.55,21.47,25.19-6.24Z"/><path class="cls-3" d="M424.05,140.07h0a.2.2,0,0,1-.09,0L389.9,99.64a.12.12,0,0,1,0-.15.11.11,0,0,1,.14,0l57.11,18.43a.15.15,0,0,1,.07,0h0a.14.14,0,0,1,0,.16l0,0L424.13,140A.12.12,0,0,1,424.05,140.07ZM390.37,99.81l33.69,39.95,22.82-21.71Z"/><path class="cls-3" d="M449.81,133.69a.15.15,0,0,1-.09,0,.14.14,0,0,1,0-.16l25.41-37.44a.11.11,0,0,1,.16,0,.12.12,0,0,1,.06.13l-2.07,26.21a.12.12,0,0,1-.07.11l-23.33,11.22Zm25.25-37.11-24.88,36.67,22.85-11Z"/><path class="cls-3" d="M449.81,133.69h0a.13.13,0,0,1-.1-.1L447,118a.14.14,0,0,1,0-.12L475.13,96a.12.12,0,0,1,.15,0,.12.12,0,0,1,.05.16h0s0,0,0,0l-25.4,37.43A.14.14,0,0,1,449.81,133.69Zm-2.56-15.64,2.63,15.19L474.67,96.7Z"/><path class="cls-3" d="M499.83,136.12h-.05l-26.69-13.65a.15.15,0,0,1-.07-.13.14.14,0,0,1,.09-.11l46.64-12.7h0a.14.14,0,0,1,.11.07.14.14,0,0,1,0,.13l-20,26.36A.12.12,0,0,1,499.83,136.12Zm-26.34-13.74,26.31,13.46,19.67-26Z"/><path class="cls-3" d="M473.15,122.47a.11.11,0,0,1-.08,0,.13.13,0,0,1-.05-.11l2.07-26.22a.15.15,0,0,1,.06-.09.1.1,0,0,1,.1,0l44.57,13.52a.12.12,0,0,1,0,.24l-46.63,12.7Zm2.18-26.19-2.05,25.9,46.05-12.55Z"/><path class="cls-3" d="M366,176.54l-.06,0L345.5,165.7a.18.18,0,0,1-.06-.09.12.12,0,0,1,0-.11l42.24-41.92a.11.11,0,0,1,.17,0h0a.12.12,0,0,1,0,.13l-21.84,52.75a.14.14,0,0,1-.08.07Zm-20.19-11,20.13,10.68,21.56-52.05Z"/><path class="cls-3" d="M366,176.54a.12.12,0,0,1-.09,0,.12.12,0,0,1,0-.16l22.9-26a.09.09,0,0,1,.06,0L424,139.83a.12.12,0,0,1,.14,0h0a.13.13,0,0,1,0,.12.16.16,0,0,1-.07.09L366,176.52Zm23-26-22.3,25.29,56.57-35.52Z"/><path class="cls-3" d="M366,176.54a.13.13,0,0,1-.08,0,.14.14,0,0,1,0-.15l21.84-52.74a.12.12,0,0,1,.07-.07h.1l36.23,16.27.05,0h0a.12.12,0,0,1,0,.16.12.12,0,0,1,0,.05L366,176.52Zm21.91-52.71L366.23,176.1,423.78,140Z"/><path class="cls-3" d="M459.16,162.08h0l-70.3-11.5a.12.12,0,0,1-.1-.12.13.13,0,0,1,.09-.13l60.93-16.88a.12.12,0,0,1,.14,0,.1.1,0,0,1,0,.05l9.34,28.39a.17.17,0,0,1,0,.12A.13.13,0,0,1,459.16,162.08Zm-69.71-11.66L459,161.8l-9.25-28.08Z"/><path class="cls-3" d="M388.86,150.58a.14.14,0,0,1-.12-.09.13.13,0,0,1,.09-.16L424,139.82l25.77-6.38a.11.11,0,0,1,.12,0,.13.13,0,0,1,0,.12.2.2,0,0,1-.09.09l-61,16.88Zm52.29-14.74-17.07,4.22L400.85,147Z"/><path class="cls-3" d="M498.89,176h0l-39.73-13.87a.11.11,0,0,1-.07-.06.12.12,0,0,1,0-.1l14-39.61a.13.13,0,0,1,.06-.07h0a.12.12,0,0,1,.1,0,.13.13,0,0,1,.07.06L499,175.77a.11.11,0,0,1,0,.14A.1.1,0,0,1,498.89,176Zm-39.57-14.07,39.33,13.73-25.49-52.94Z"/><path class="cls-3" d="M459.16,162.08h0A.13.13,0,0,1,459,162l-9.35-28.39a.12.12,0,0,1,.07-.15l23.33-11.22a.13.13,0,0,1,.17.06.11.11,0,0,1,0,.11l-14,39.6A.13.13,0,0,1,459.16,162.08ZM450,133.63l9.2,27.94,13.76-39Z"/><path class="cls-3" d="M498.89,176l-.06,0a.11.11,0,0,1-.06-.11l.94-39.82a.13.13,0,0,1,0-.06h0a.16.16,0,0,1,.08-.06.11.11,0,0,1,.11,0l31.61,21.4a.11.11,0,0,1,.06.1.14.14,0,0,1-.07.11L499,175.93ZM500,136.23,499,175.61l32.19-18.23Z"/><path class="cls-3" d="M498.89,176a.12.12,0,0,1-.11-.07L473,122.4a.14.14,0,0,1,0-.15.14.14,0,0,1,.14,0l26.69,13.66a.11.11,0,0,1,.07.13L499,175.83a.13.13,0,0,1-.1.12Zm-25.47-53.33,25.36,52.68.93-39.23Z"/><path class="cls-3" d="M148.8,201.93a.13.13,0,0,1-.12-.09.11.11,0,0,1,0-.14l52.63-34a.12.12,0,0,1,.16,0,.14.14,0,0,1,0,.09l.93,29.15a.13.13,0,0,1-.12.13l-53.55,4.84ZM201.31,168l-52,33.61,52.93-4.78Z"/><path class="cls-3" d="M352.74,188.71h0l-59.85-7.57a.14.14,0,0,1-.11-.12.13.13,0,0,1,.09-.13l52.66-15.4a.11.11,0,0,1,.14,0,.21.21,0,0,1,0,.06l7.17,23a.13.13,0,0,1,0,.12A.11.11,0,0,1,352.74,188.71ZM293.5,181l59.06,7.48-7.08-22.69Z"/><path class="cls-3" d="M393.61,199.69h0l-40.86-11a.12.12,0,0,1-.09-.09.13.13,0,0,1,0-.12l13.22-12.16a.13.13,0,0,1,.18,0l27.64,23.15a.16.16,0,0,1,0,.16A.14.14,0,0,1,393.61,199.69ZM353,188.52l40.1,10.78L366,176.58Z"/><path class="cls-3" d="M352.74,188.71h0a.11.11,0,0,1-.09-.08l-7.18-23a.13.13,0,0,1,0-.13.12.12,0,0,1,.14,0L366,176.3a.12.12,0,0,1,.06.06.12.12,0,0,1,0,.14l-13.23,12.17A.12.12,0,0,1,352.74,188.71Zm-7-22.87,7,22.52,12.95-11.92Z"/><path class="cls-3" d="M393.61,199.69h-.05a.13.13,0,0,1-.08-.11l-4.74-49.1a.19.19,0,0,1,0-.08.13.13,0,0,1,.14-.07.13.13,0,0,1,.07,0l33.15,26.18a.12.12,0,0,1,0,.2l-28.43,22.92A.1.1,0,0,1,393.61,199.69Zm-4.59-49,4.69,48.6,28.12-22.68Z"/><path class="cls-3" d="M393.61,199.69a.11.11,0,0,1-.08,0l-27.65-23.16a.15.15,0,0,1,0-.09.14.14,0,0,1,0-.09l22.9-26a.13.13,0,0,1,.22.07l4.74,49.12a.12.12,0,0,1-.07.12ZM366.14,176.4l27.31,22.88-4.68-48.53Z"/><path class="cls-3" d="M462.25,194.94h-.06L422,176.76a.12.12,0,0,1-.07-.11.13.13,0,0,1,.08-.12l37.13-14.69a.13.13,0,0,1,.17.11h0l3.08,32.84a.17.17,0,0,1-.05.12Zm-39.89-18.28,39.74,18-3.05-32.48Z"/><path class="cls-3" d="M422,176.77a.1.1,0,0,1-.07,0l-33.17-26.2a.12.12,0,0,1,0-.15.12.12,0,0,1,.13-.07l70.29,11.5.06,0a.11.11,0,0,1,.06.1h0a.12.12,0,0,1-.05.09l-.05,0-37.11,14.69Zm-32.71-26.12,32.74,25.86L458.69,162Z"/><path class="cls-3" d="M462.25,194.94a.15.15,0,0,1-.12-.07.13.13,0,0,1,.06-.17l36.63-19a.13.13,0,0,1,.1,0,.11.11,0,0,1,.08.07.13.13,0,0,1-.05.17h0l-8.26,6.15L462.3,194.93Zm35.33-18.29-31.13,16.13,24.12-10.9Z"/><path class="cls-3" d="M462.25,194.94l-.06,0a.13.13,0,0,1-.07-.09L459,162a.11.11,0,0,1,0-.11.11.11,0,0,1,.12,0l39.73,13.87a.11.11,0,0,1,.07.06.13.13,0,0,1-.05.17l-36.65,19Zm-2.95-32.8,3.05,32.48,36.23-18.77Z"/><path class="cls-3" d="M502.22,191.26l-.08,0-11.6-9.15a.16.16,0,0,1-.05-.11.17.17,0,0,1,.06-.1l40.82-24.59a.15.15,0,0,1,.16,0,.14.14,0,0,1,0,.17l0,0-29.23,33.74A.11.11,0,0,1,502.22,191.26ZM490.84,182l11.36,9,28.64-33.06Z"/><path class="cls-3" d="M490.62,182.11a.13.13,0,0,1-.11-.05.14.14,0,0,1,0-.17l8.28-6.16,32.57-18.45a.12.12,0,0,1,.15,0,.14.14,0,0,1,0,.16l0,0-40.83,24.6ZM523.5,162,499,175.93l-6.22,4.64Z"/><path class="cls-3" d="M149.64,215.31a.18.18,0,0,1-.1,0l-9.13-9.84a.11.11,0,0,1,0-.11.11.11,0,0,1,.07-.09l8.3-3.54a.11.11,0,0,1,.15,0,.11.11,0,0,1,0,.08l.84,13.36a.14.14,0,0,1-.07.13Zm-8.93-9.92,8.78,9.45L148.68,202Z"/><path class="cls-3" d="M137.8,205.56a.13.13,0,0,1-.12-.11.12.12,0,0,1,.08-.14l11-3.62a.11.11,0,0,1,.15,0,.13.13,0,0,1,0,.16h0l0,0h0l-8.28,3.54h0l-2.7.09Zm8.22-2.71-7.35,2.43,1.8-.06Z"/><path class="cls-3" d="M209,219.35h0l-59.31-4a.14.14,0,0,1-.12-.11.13.13,0,0,1,.09-.14l52.7-18.21a.13.13,0,0,1,.18.09h0l6.59,22.25a.17.17,0,0,1,0,.12A.13.13,0,0,1,209,219.35Zm-58.69-4.25,58.52,4-6.51-22Z"/><path class="cls-3" d="M149.64,215.31l-.07,0a.12.12,0,0,1-.06-.1l-.84-13.38a.12.12,0,0,1,.11-.13l53.56-4.84c.06,0,.12,0,.14.1a.13.13,0,0,1-.08.14L149.68,215.3Zm-.71-13.4.82,13.1,51.6-17.83Z"/><path class="cls-3" d="M253.23,223.64h0l-44.28-4.29a.13.13,0,0,1-.09,0,.17.17,0,0,1,0-.1l4.84-40.94a.13.13,0,0,1,.07-.09.11.11,0,0,1,.11,0h0s0,0,0,0l39.44,45.23a.11.11,0,0,1,0,.14A.11.11,0,0,1,253.23,223.64Zm-44.14-4.52,43.84,4.24-39.05-44.78Z"/><path class="cls-3" d="M209,219.35a.11.11,0,0,1-.12-.09L202.23,197a.12.12,0,0,1,0-.1l11.42-18.66a.12.12,0,0,1,.06-.06.11.11,0,0,1,.11,0h0a.12.12,0,0,1,.07.07v.08l-4.84,40.91a.11.11,0,0,1-.11.11ZM202.49,197l6.41,21.63,4.69-39.77Z"/><path class="cls-3" d="M305.58,227.23h0l-52.13-14.66a.13.13,0,0,1-.09-.1.13.13,0,0,1,0-.12l39.45-31.44.07,0h0a.13.13,0,0,1,.12.09l12.69,46.1a.11.11,0,0,1,0,.12A.12.12,0,0,1,305.58,227.23Zm-51.87-14.85,51.69,14.54-12.58-45.7Z"/><path class="cls-3" d="M305.58,227.23a.13.13,0,0,1-.08-.23l47.16-38.51a0,0,0,0,1,0,0h0a.11.11,0,0,1,.11,0,.13.13,0,0,1,.07.09l3.39,16.62a.11.11,0,0,1-.07.14l-50.55,21.9Zm47.08-38.42-46.31,37.82L356,205.13Z"/><path class="cls-3" d="M305.58,227.23h0a.11.11,0,0,1-.08-.09L292.77,181a.09.09,0,0,1,0-.11.13.13,0,0,1,.11,0l59.85,7.58a.12.12,0,0,1,.11.1.11.11,0,0,1-.05.12L305.66,227.2A.13.13,0,0,1,305.58,227.23Zm-12.52-46.08,12.59,45.73,46.78-38.21Z"/><path class="cls-3" d="M377,206.57h0l-20.91-1.24a.13.13,0,0,1,0-.25l37.48-5.64a.14.14,0,0,1,.1,0h0a.12.12,0,0,1,0,.11.14.14,0,0,1-.08.1l-16.56,6.88Zm-19.71-1.42L377,206.32l15.6-6.48Z"/><path class="cls-3" d="M356.13,205.33a.12.12,0,0,1-.12-.1l-3.39-16.62a.12.12,0,0,1,0-.12.13.13,0,0,1,.12,0l40.85,11a.09.09,0,0,1,.07,0h0a.12.12,0,0,1,0,.15.11.11,0,0,1-.1.06l-37.46,5.64Zm-3.23-16.58,3.33,16.31L393,199.53Z"/><path class="cls-3" d="M377,206.57a.12.12,0,0,1-.12-.08.11.11,0,0,1,.05-.14l45-29.81a.14.14,0,0,1,.11,0,.16.16,0,0,1,.08.06h0a.22.22,0,0,1,0,.08l-4.57,28.72a.14.14,0,0,1-.12.11L377,206.57Zm44.83-29.66-44.4,29.4,39.89-1.06Z"/><path class="cls-3" d="M377,206.57a.11.11,0,0,1-.11-.06.12.12,0,0,1,0-.16l45-29.81a.14.14,0,0,1,.11,0,.16.16,0,0,1,.08.06h0a.14.14,0,0,1,0,.16l-28.43,22.92,0,0-16.56,6.88Zm42.85-28.36-41.7,27.62,15.35-6.37Z"/><path class="cls-3" d="M430.67,212.28h-.06l-13.2-6.79a.12.12,0,0,1,0-.23L462.2,194.7a.11.11,0,0,1,.11,0,.11.11,0,0,1,.06.1.12.12,0,0,1-.08.12l-31.56,17.34Zm-12.85-6.87,12.85,6.6,30.71-16.86Z"/><path class="cls-3" d="M417.46,205.5a.12.12,0,0,1-.08,0,.12.12,0,0,1,0-.11l4.57-28.72a.13.13,0,0,1,.07-.09.11.11,0,0,1,.11,0L462.3,194.7a.14.14,0,0,1,.07.11.14.14,0,0,1-.1.13l-44.78,10.55Zm4.67-28.67-4.51,28.38,44.24-10.43Zm40.12,18Z"/><path class="cls-3" d="M494.18,231.39h0l-63.52-19.11a.14.14,0,0,1-.09-.11.17.17,0,0,1,.07-.13l59.95-30.16a.13.13,0,0,1,.12,0,.11.11,0,0,1,.06.1l3.57,49.28a.12.12,0,0,1-.05.1A.11.11,0,0,1,494.18,231.39ZM431,212.13l63.05,19-3.54-48.91Z"/><path class="cls-3" d="M430.67,212.28a.11.11,0,0,1-.11-.07.12.12,0,0,1,.05-.16l31.58-17.35,28.38-12.82a.12.12,0,1,1,.1.22l-59.94,30.17Zm54.53-27.71-22.9,10.36-25.49,14Z"/><path class="cls-3" d="M494.18,231.39h0a.13.13,0,0,1-.09-.15l8-40.11a.14.14,0,0,1,.07-.1.11.11,0,0,1,.11,0,.11.11,0,0,1,.07.13h0l-1.59,21.68v0l-6.45,18.43A.12.12,0,0,1,494.18,231.39ZM502,193.15l-7.29,36.38,5.84-16.71Z"/><path class="cls-3" d="M494.18,231.39h0a.11.11,0,0,1-.12-.11L490.49,182a.14.14,0,0,1,.07-.12.14.14,0,0,1,.14,0L502.3,191c.05,0,.05.07,0,.12l-8,40.13A.14.14,0,0,1,494.18,231.39Zm-3.42-49.13,3.48,48.08,7.84-39.15Z"/><path class="cls-3" d="M3.76,260.84a.07.07,0,0,1-.06,0,.11.11,0,0,1-.06-.13l11.61-47.2a.09.09,0,0,1,0-.05.13.13,0,0,1,.21,0h0l16.76,21.2a.12.12,0,0,1,0,.17l-28.39,26A.11.11,0,0,1,3.76,260.84Zm11.67-47.06L4,260.35,32,234.7Z"/><path class="cls-3" d="M38.9,264.61h0a.14.14,0,0,1-.08-.1L32,234.74a.11.11,0,0,1,0-.1.12.12,0,0,1,.09,0l41.44-3.68a.08.08,0,0,1,.08,0,.12.12,0,0,1,.07.13.11.11,0,0,1,0,.08L39,264.57A.12.12,0,0,1,38.9,264.61Zm-6.6-29.79L39,264.24l34.28-33.05Z"/><path class="cls-3" d="M32.14,234.83a.13.13,0,0,1-.1,0L15.27,213.57a.12.12,0,0,1,0-.14.11.11,0,0,1,.14-.05l58.22,17.53a.13.13,0,0,1,.08.14s0,.1-.1.1l-41.46,3.68Zm-16.42-21.1L32.2,234.58,73,231Z"/><path class="cls-3" d="M121,245.81h0L88,240.69a.11.11,0,0,1-.1-.09.13.13,0,0,1,0-.13l52.5-35.22.05,0a.17.17,0,0,1,.1,0,.14.14,0,0,1,.07.1.29.29,0,0,1,0,.09l-19.47,40.32A.12.12,0,0,1,121,245.81ZM88.32,240.5,121,245.55l19.23-39.84Z"/><path class="cls-3" d="M172.34,247.33h0L121,245.81a.12.12,0,0,1-.11-.08.13.13,0,0,1,0-.13l28.6-30.5a.13.13,0,0,1,.1,0h0a.14.14,0,0,1,.1.05l22.7,32a.12.12,0,0,1,0,.13A.14.14,0,0,1,172.34,247.33Zm-51-1.76,50.78,1.5-22.47-31.69Z"/><path class="cls-3" d="M121,245.81l-.07,0a.13.13,0,0,1,0-.16l19.47-40.34a.13.13,0,0,1,.09-.07.11.11,0,0,1,.11,0l9.14,9.84a.12.12,0,0,1,0,.13l0,.05-28.6,30.49A.1.1,0,0,1,121,245.81Zm19.5-40.25L121.5,245l28-29.82Z"/><path class="cls-3" d="M207.26,248.86h0l-34.92-1.53a.13.13,0,0,1-.11-.09.12.12,0,0,1,0-.14l36.6-28a.14.14,0,0,1,.21.05.06.06,0,0,1,0,.06l-1.68,29.49A.13.13,0,0,1,207.26,248.86Zm-34.57-1.77,34.45,1.51,1.67-29.11Z"/><path class="cls-3" d="M172.34,247.33h0a.08.08,0,0,1-.08,0l-22.71-32a.12.12,0,0,1,0-.13.13.13,0,0,1,.12-.06l59.31,4a.14.14,0,0,1,.11.09.14.14,0,0,1,0,.14l-36.62,28A.11.11,0,0,1,172.34,247.33Zm-22.45-32L172.36,247l36.25-27.69Z"/><path class="cls-3" d="M238.76,251.59h0l-31.5-2.73a.14.14,0,0,1-.11-.1.13.13,0,0,1,.06-.14l46-25.21.06,0h0a.17.17,0,0,1,.11.06.15.15,0,0,1,0,.13l-14.47,27.94A.12.12,0,0,1,238.76,251.59Zm-31.08-3,31,2.69,14.24-27.51Z"/><path class="cls-3" d="M207.26,248.86l-.07,0a.13.13,0,0,1-.05-.11l1.68-29.51a.2.2,0,0,1,.05-.09.09.09,0,0,1,.09,0l44.28,4.29a.12.12,0,0,1,.12.12.15.15,0,0,1-.08.12l-46,25.2Zm1.81-29.49-1.67,29.14,45.41-24.91Z"/><path class="cls-3" d="M291.2,265.67h0l-52.44-14.09a.1.1,0,0,1-.08-.06.12.12,0,0,1,0-.1l14.68-39a.13.13,0,0,1,.12-.08h0a.12.12,0,0,1,.1.05l37.76,53.11a.14.14,0,0,1,0,.15A.12.12,0,0,1,291.2,265.67Zm-52.28-14.29,52,14L253.47,212.7Z"/><path class="cls-3" d="M238.76,251.59h0a.14.14,0,0,1-.07-.16l14.68-39a.13.13,0,0,1,.12-.08h0a.12.12,0,0,1,.09,0,.09.09,0,0,1,0,.09l-.2,11.08a.14.14,0,0,1,0,.06l-14.47,27.94A.14.14,0,0,1,238.76,251.59Zm14.54-38.44-13.68,36.38,13.49-26Z"/><path class="cls-3" d="M291.2,265.67a.11.11,0,0,1-.08,0,.12.12,0,0,1,0-.14l14.38-38.44a.12.12,0,0,1,.09-.08.11.11,0,0,1,.11,0h0L325,245.57a.12.12,0,0,1,0,.11.13.13,0,0,1-.06.09l-33.69,19.88A.07.07,0,0,1,291.2,265.67Zm14.43-38.35-14.19,37.94,33.24-19.62Z"/><path class="cls-3" d="M291.2,265.67a.12.12,0,0,1-.1-.05l-37.76-53.11a.14.14,0,0,1,0-.15.11.11,0,0,1,.13,0L305.59,227a.09.09,0,0,1,.07,0h0a.12.12,0,0,1,0,.15h0l-14.36,38.42a.16.16,0,0,1-.1.08Zm-37.45-53,37.41,52.63,14.25-38.1Z"/><path class="cls-3" d="M337.49,249.34h0l-12.6-3.56a.13.13,0,0,1-.06-.2L356,205.15a.13.13,0,0,1,.07-.06h.1a.16.16,0,0,1,.07.09.18.18,0,0,1,0,.1l-18.64,44A.12.12,0,0,1,337.49,249.34Zm-12.39-3.75,12.32,3.48,18.22-43Z"/><path class="cls-3" d="M324.89,245.79a.13.13,0,0,1-.09,0l-19.31-18.56a.15.15,0,0,1,0-.11.12.12,0,0,1,.08-.09l50.55-21.9h.11a.16.16,0,0,1,.07.09.13.13,0,0,1,0,.1L325,245.74a.2.2,0,0,1-.09,0ZM305.8,227.14l19.07,18.33,30.87-40Z"/><path class="cls-3" d="M388.08,253.55h0l-50.58-4.21a.12.12,0,0,1-.11-.08.16.16,0,0,1,0-.13L377,206.37h0a.13.13,0,0,1,.12,0,.12.12,0,0,1,.09.09l11,47a.11.11,0,0,1,0,.11A.12.12,0,0,1,388.08,253.55Zm-50.33-4.44,50.16,4.17L377,206.71Z"/><path class="cls-3" d="M337.49,249.34a.1.1,0,0,1-.07,0,.12.12,0,0,1-.05-.15l18.65-44a.14.14,0,0,1,.12-.08l20.91,1.24a.14.14,0,0,1,.11.09.16.16,0,0,1,0,.13L337.58,249.3A.11.11,0,0,1,337.49,249.34Zm18.72-44-18.33,43.27,38.89-42.05Z"/><path class="cls-3" d="M413.11,255.6h0l-25-2a.14.14,0,0,1-.11-.07.13.13,0,0,1,0-.12l29.38-48.05,0,0h0a.16.16,0,0,1,.15,0,.14.14,0,0,1,.07.12l-4.35,50.1A.14.14,0,0,1,413.11,255.6Zm-24.82-2.29,24.71,2,4.29-49.45Z"/><path class="cls-3" d="M388.08,253.55h0a.11.11,0,0,1-.11-.09l-11-47a.14.14,0,0,1,0-.11.16.16,0,0,1,.1-.05l40.42-1.07h0a.12.12,0,0,1,.12.07.13.13,0,0,1,0,.13l-29.38,48A.13.13,0,0,1,388.08,253.55Zm-10.88-47,10.93,46.53,29.11-47.6Z"/><path class="cls-3" d="M462.59,259.8h0l-49.48-4.2a.17.17,0,0,1-.1-.06.14.14,0,0,1,0-.11l17.56-43.3a.1.1,0,0,1,0-.07.12.12,0,0,1,.17,0v0l31.93,47.52a.15.15,0,0,1,0,.13A.11.11,0,0,1,462.59,259.8Zm-49.3-4.44,49,4.17L430.7,212.42Z"/><path class="cls-3" d="M413.11,255.6h0a.11.11,0,0,1-.09-.13l4.35-50.1a.13.13,0,0,1,.06-.1.13.13,0,0,1,.12,0L430.73,212l0,0a.15.15,0,0,1,0,.13l-17.56,43.32A.13.13,0,0,1,413.11,255.6Zm4.46-50-4.26,49.08,17.2-42.43Z"/><path class="cls-3" d="M462.59,259.8a.11.11,0,0,1-.1-.06.11.11,0,0,1,0-.16l31.58-28.4a.12.12,0,0,1,.14,0,.13.13,0,0,1,.08.12.15.15,0,0,1,0,.09h0l-23.48,25,0,0-8.11,3.4Zm29.47-26.46-28.84,25.93,7.41-3.1Z"/><path class="cls-3" d="M462.59,259.8h0a.15.15,0,0,1-.09-.06l-31.92-47.51a.14.14,0,0,1,0-.15.11.11,0,0,1,.13,0l63.52,19.11a.12.12,0,0,1,.09.12.15.15,0,0,1,0,.09l-31.59,28.41A.16.16,0,0,1,462.59,259.8ZM431,212.38l31.65,47.11,31.32-28.17Zm63.21,18.89h0Z"/><path class="cls-3" d="M470.7,256.4a.14.14,0,0,1-.11-.06.14.14,0,0,1,0-.14l29.92-43.43h0a.14.14,0,0,1,.11,0,.13.13,0,0,1,.09.07l17.88,38.61a.17.17,0,0,1,0,.12.15.15,0,0,1-.09.06l-47.81,4.82Zm29.91-43.31-29.65,43,47.36-4.77Z"/><path class="cls-3" d="M470.7,256.4a.11.11,0,0,1-.08,0,.12.12,0,0,1,0-.17l29.92-43.43h0a.11.11,0,0,1,.15,0,.12.12,0,0,1,.06.14l-6.45,18.43a.05.05,0,0,1,0,0l-23.48,25A.11.11,0,0,1,470.7,256.4Zm29.5-42.72L471.74,255l22.33-23.78Z"/><path class="cls-3" d="M11.63,295.87a.12.12,0,0,1-.1-.05l-15.37-18.3a.12.12,0,0,1,0-.16l35.89-42.73a.11.11,0,0,1,.09,0h0a.14.14,0,0,1,.12.17l-20.52,61a.11.11,0,0,1-.09.08ZM-3.58,277.44l15.16,18.05,20.23-60.2Z"/><path class="cls-3" d="M-3.74,277.56a.08.08,0,0,1-.07,0,.13.13,0,0,1,0-.15l7.51-16.72s0,0,0,0l28.37-26a.12.12,0,0,1,.09,0h0a.15.15,0,0,1,.12.08.12.12,0,0,1,0,.14L-3.65,277.52A.11.11,0,0,1-3.74,277.56Zm7.6-16.77-7.12,15.88L30.81,236.1Z"/><path class="cls-3" d="M11.63,295.87a.12.12,0,0,1-.1-.05.12.12,0,0,1,0-.16L38.8,264.4h0a.15.15,0,0,1,.11,0,.13.13,0,0,1,.09.07l5.69,12.83a.12.12,0,0,1-.05.16l-33,18.43Zm27.23-31.16L12.19,295.28l32.24-18Z"/><path class="cls-3" d="M11.63,295.87l-.07,0a.12.12,0,0,1-.05-.15l20.51-61a.14.14,0,0,1,.12-.09h0a.14.14,0,0,1,.11.1L39,264.46a.11.11,0,0,1,0,.11L11.72,295.82A.12.12,0,0,1,11.63,295.87Zm20.49-60.7-20.18,60,26.82-30.74Z"/><path class="cls-3" d="M82.25,279.77h0l-37.66-2.33a.13.13,0,0,1-.11-.09.11.11,0,0,1,0-.13l43.38-36.73a.1.1,0,0,1,0,0,.15.15,0,0,1,.13,0,.18.18,0,0,1,0,.1v0l-5.73,39.07A.12.12,0,0,1,82.25,279.77Zm-37.34-2.56,37.23,2.31,5.67-38.64Z"/><path class="cls-3" d="M44.59,277.44h0a.14.14,0,0,1-.09-.08l-5.69-12.82a.14.14,0,0,1,.06-.17l49.09-23.91a.11.11,0,0,1,.14,0,.18.18,0,0,1,0,.1.16.16,0,0,1,0,.09L44.67,277.41A.11.11,0,0,1,44.59,277.44Zm-5.53-12.9,5.58,12.57,42.5-36Z"/><path class="cls-3" d="M110.83,287.55h0l-28.58-7.78a.14.14,0,0,1-.09-.09.15.15,0,0,1,0-.13l38.79-34a.11.11,0,0,1,.08,0h0a.12.12,0,0,1,.1.05.14.14,0,0,1,0,.11L111,287.46a.16.16,0,0,1-.06.08Zm-28.33-8,28.24,7.68L120.82,246Z"/><path class="cls-3" d="M82.25,279.77h-.06a.15.15,0,0,1-.07-.13l5.74-39.08a.1.1,0,0,1,0-.08.09.09,0,0,1,.09,0l33.05,5.11a.13.13,0,0,1,.11.14.15.15,0,0,1-.06.09l-38.77,34A.13.13,0,0,1,82.25,279.77Zm5.84-39.06-5.67,38.62,38.33-33.56Z"/><path class="cls-3" d="M164.78,291.41h0l-54-3.86a.11.11,0,0,1-.11-.09.11.11,0,0,1,.05-.14l61.5-40.21s.06,0,.09,0a.12.12,0,0,1,.11.12v0l-7.56,44.09A.12.12,0,0,1,164.78,291.41Zm-53.57-4.08,53.46,3.82,7.49-43.69Z"/><path class="cls-3" d="M110.83,287.55a.12.12,0,0,1-.08,0,.11.11,0,0,1,0-.13l10.2-41.74a.12.12,0,0,1,.12-.1h0l51.3,1.52a.12.12,0,0,1,.12.12.16.16,0,0,1-.05.11L110.9,287.53A.11.11,0,0,1,110.83,287.55Zm10.3-41.74L111,287.15l60.92-39.84Zm51.21,1.39Z"/><path class="cls-3" d="M164.78,291.41a.12.12,0,0,1-.1-.05.12.12,0,0,1,0-.16l42.47-42.54a.13.13,0,0,1,.07,0,.13.13,0,0,1,.12,0,.12.12,0,0,1,0,.15l-7.8,25.2a.18.18,0,0,1-.07.08L164.83,291.4ZM207,249.18l-41.58,41.65,33.94-17Z"/><path class="cls-3" d="M164.78,291.41h-.06a.12.12,0,0,1-.06-.13l7.55-44.09a.13.13,0,0,1,.13-.1h0l34.93,1.53a.11.11,0,0,1,.08,0,.13.13,0,0,1,0,.18l-42.48,42.55A.12.12,0,0,1,164.78,291.41Zm7.66-44.08L165,290.92l42-42.08Z"/><path class="cls-3" d="M199.45,274.08a.14.14,0,0,1-.12-.09.12.12,0,0,1,.06-.14l39.3-22.49h0a.13.13,0,0,1,.17.05.12.12,0,0,1,0,.15l-16.2,19.92a.14.14,0,0,1-.08,0l-23.11,2.56Zm38.79-22.18L200,273.76l22.46-2.49Z"/><path class="cls-3" d="M199.45,274.08a.11.11,0,0,1-.08,0,.11.11,0,0,1,0-.13l7.81-25.23a.12.12,0,0,1,.13-.08l31.49,2.73a.11.11,0,0,1,.11.06.13.13,0,0,1-.05.17l-39.31,22.49Zm7.9-25.22-7.69,24.83,38.69-22.14Z"/><path class="cls-3" d="M266.66,286.27h0l-44.1-14.75a.12.12,0,0,1,0-.24l68.64-5.85a.14.14,0,0,1,.1,0h0a.1.1,0,0,1,0,.09.1.1,0,0,1,0,.09l-24.54,20.6A.11.11,0,0,1,266.66,286.27Zm-43.49-14.8L266.64,286l24.18-20.3Z"/><path class="cls-3" d="M222.56,271.52a.12.12,0,0,1-.11-.07.12.12,0,0,1,0-.14l16.2-19.93a.15.15,0,0,1,.13,0l52.43,14.08.07,0h0a.12.12,0,0,1,0,.15.16.16,0,0,1-.12.06l-68.62,5.85Zm16.25-19.92-16,19.64,67.64-5.76Z"/><path class="cls-3" d="M285.36,291.68h0l-18.7-5.41a.12.12,0,0,1-.09-.1.11.11,0,0,1,0-.12l58.22-40.48a.12.12,0,0,1,.16,0,.12.12,0,0,1,0,.17l-39.52,45.9A.18.18,0,0,1,285.36,291.68ZM267,286.09l18.37,5.32,38.83-45.08Z"/><path class="cls-3" d="M266.66,286.27a.12.12,0,0,1-.09,0,.14.14,0,0,1,0-.18l24.54-20.59,33.7-19.9a.14.14,0,0,1,.17,0,.15.15,0,0,1,0,.17h0l-58.22,40.48A.13.13,0,0,1,266.66,286.27Zm55.4-38.79-30.8,18.17-22.41,18.82Z"/><path class="cls-3" d="M285.36,291.68a.12.12,0,0,1-.11-.07.12.12,0,0,1,0-.15l52.13-42.34a.12.12,0,0,1,.17,0h0l18.9,30.75a.13.13,0,0,1,0,.12.16.16,0,0,1-.09.07l-71,11.61Zm52.1-42.28-51.65,42,70.36-11.51Z"/><path class="cls-3" d="M285.36,291.68a.12.12,0,0,1-.09,0,.14.14,0,0,1,0-.17l39.52-45.89a.12.12,0,0,1,.13,0l12.59,3.55.07,0h0a.12.12,0,0,1,0,.15l-.05.05-52.11,42.32A.11.11,0,0,1,285.36,291.68Zm39.57-45.88-38.56,44.77,50.85-41.3Z"/><path class="cls-3" d="M356.38,280.07a.11.11,0,0,1-.11-.06.12.12,0,0,1,0-.16L388,253.33l0,0a.13.13,0,0,1,.16,0,.12.12,0,0,1,0,.16L369.75,275a.1.1,0,0,1-.05,0l-13.28,5.06ZM387,254.49l-30,25.07,12.55-4.79Z"/><path class="cls-3" d="M356.38,280.07h0a.15.15,0,0,1-.09-.06l-18.89-30.73a.15.15,0,0,1,0-.13.17.17,0,0,1,.12-.06l50.58,4.21a.12.12,0,0,1,.08.22L356.46,280A.13.13,0,0,1,356.38,280.07Zm-18.65-30.71,18.68,30.4,31.35-26.24Z"/><path class="cls-3" d="M369.66,275a.13.13,0,0,1-.06-.24l43.45-19.41a.14.14,0,0,1,.18.07l5.16,11.37a.11.11,0,0,1,0,.11.11.11,0,0,1-.09.06l-48.62,8Zm43.39-19.37-42.46,19,47.51-7.85Z"/><path class="cls-3" d="M369.66,275a.16.16,0,0,1-.11-.05.13.13,0,0,1,0-.16L388,253.34a.1.1,0,0,1,.1,0l25,2a.12.12,0,0,1,.11.1.13.13,0,0,1-.07.14L369.71,275Zm18.47-21.46-18,21,42.51-19Z"/><path class="cls-3" d="M427.48,295h0a.12.12,0,0,1-.09-.08l-9.2-28a.14.14,0,0,1,0-.11.11.11,0,0,1,.09,0l44.31-7.18h0a.13.13,0,0,1,.12.08.11.11,0,0,1,0,.13L427.57,295Zm-9-28.06,9.09,27.71,34.7-34.8Z"/><path class="cls-3" d="M418.28,267a.12.12,0,0,1-.11-.07L413,255.52a.11.11,0,0,1,0-.12.1.1,0,0,1,.11-.05l49.48,4.2a.13.13,0,0,1,.12.13.15.15,0,0,1-.12.12L418.3,267Zm-5-11.36,5,11.1,43.22-7Z"/><path class="cls-3" d="M427.48,295a.13.13,0,0,1-.1,0,.12.12,0,0,1,0-.17l43.21-38.62a.13.13,0,0,1,.13,0h0a.12.12,0,0,1,.07.18L462.24,270l0,0L427.55,295A.1.1,0,0,1,427.48,295ZM470.13,257l-40.81,36.46L462,269.89Z"/><path class="cls-3" d="M427.48,295a.14.14,0,0,1-.09,0,.13.13,0,0,1,0-.18l35.11-35.21,0,0,8.09-3.39a.11.11,0,0,1,.11,0h0a.13.13,0,0,1,.09.11.12.12,0,0,1-.07.11L427.56,295A.11.11,0,0,1,427.48,295Zm35.18-35.23-32,32.13,39.42-35.23Z"/><path class="cls-3" d="M496.92,278.28h0l-34.79-8.19a.14.14,0,0,1-.1-.11.14.14,0,0,1,.09-.13l56.37-18.52a.17.17,0,0,1,.12,0,.12.12,0,0,1,0,.1h0a.11.11,0,0,1,0,.08L497,278.24A.11.11,0,0,1,496.92,278.28ZM462.59,270,496.87,278l21.27-26.32Z"/><path class="cls-3" d="M462.13,270.1a.14.14,0,0,1-.1-.05.14.14,0,0,1,0-.14l8.57-13.7a.13.13,0,0,1,.1-.06l47.78-4.82a.14.14,0,0,1,.11,0,.12.12,0,0,1,0,.1h0a.14.14,0,0,1-.1.13l-56.36,18.51Zm8.64-13.71-8.35,13.36,54.95-18.06Z"/><path class="cls-3" d="M28.89,305.11a.14.14,0,0,1-.1-.05.12.12,0,0,1,0-.14l15.69-27.65a.1.1,0,0,1,0,0,.13.13,0,0,1,.13,0,.11.11,0,0,1,.07.08h0l5.85,20.63a.12.12,0,0,1-.08.15l-21.55,7Zm15.66-27.47L29.16,304.77l21.13-6.9Z"/><path class="cls-3" d="M28.89,305.11h-.06l-17.26-9.25a.12.12,0,0,1-.07-.11.14.14,0,0,1,.07-.11l33-18.43a.11.11,0,0,1,.11,0,.11.11,0,0,1,.07.08.12.12,0,0,1,0,.1L29,305.05A.14.14,0,0,1,28.89,305.11Zm-17-9.37,17,9.08,15.42-27.18Z"/><path class="cls-3" d="M106.59,321.27h0L50.39,298.07a.13.13,0,0,1,0-.23l31.79-18.29a.13.13,0,0,1,.19,0l24.34,41.5a.12.12,0,0,1,0,.14A.13.13,0,0,1,106.59,321.27ZM50.72,297.93l55.57,23L82.2,279.82Z"/><path class="cls-3" d="M50.44,298.08h0a.18.18,0,0,1-.07-.08l-5.85-20.64a.14.14,0,0,1,0-.11.13.13,0,0,1,.11-.05l37.65,2.33a.14.14,0,0,1,.12.1.13.13,0,0,1-.06.14L50.5,298.06Zm-5.68-20.63,5.76,20.31,31.3-18Z"/><path class="cls-3" d="M106.59,321.27a.14.14,0,0,1-.09,0,.11.11,0,0,1,0-.11l4.23-33.7a.12.12,0,0,1,0-.09.11.11,0,0,1,.17,0l33.18,30.47a.14.14,0,0,1,0,.13.14.14,0,0,1-.11.09l-37.42,3.24Zm4.33-33.58L106.73,321l37-3.21Z"/><path class="cls-3" d="M106.59,321.27a.14.14,0,0,1-.11-.06l-24.34-41.5a.12.12,0,0,1,0-.14.12.12,0,0,1,.13,0l28.58,7.78.06,0a.14.14,0,0,1,0,.11l-4.24,33.71a.11.11,0,0,1-.09.11ZM82.51,279.85l24,40.92,4.18-33.25Z"/><path class="cls-3" d="M144,318l-.09,0-33.18-30.48a.12.12,0,0,1,0-.14.17.17,0,0,1,.13-.08l53.95,3.86a.13.13,0,0,1,.1.08.1.1,0,0,1,0,.12L144.11,318a.12.12,0,0,1-.09,0Zm-32.83-30.45L144,317.72l20.55-26.33Z"/><path class="cls-3" d="M217.48,325.74h0l-62.78-16a.13.13,0,0,1-.09-.1.12.12,0,0,1,.05-.12l44.75-35.66,0,0h0a.14.14,0,0,1,.11,0,.12.12,0,0,1,.07.07l18,51.66a.13.13,0,0,1,0,.13A.18.18,0,0,1,217.48,325.74ZM155,309.56l62.31,15.87-17.89-51.27Z"/><path class="cls-3" d="M154.7,309.74a.16.16,0,0,1-.09,0,.12.12,0,0,1,0-.15l10.08-18.33a.08.08,0,0,1,.05-.05l34.67-17.34a.13.13,0,0,1,.17.06.13.13,0,0,1,0,.16l-44.75,35.65A.11.11,0,0,1,154.7,309.74Zm10.17-18.36-9.76,17.75,43.33-34.53Z"/><path class="cls-3" d="M217.48,325.74h0a.14.14,0,0,1-.12-.13l1.59-28.85,3.49-25.38a.13.13,0,0,1,.25,0h0l-5.08,54.22A.13.13,0,0,1,217.48,325.74Zm4.42-48.66-2.72,19.7L218,319.15Z"/><path class="cls-3" d="M217.48,325.74a.12.12,0,0,1-.12-.09l-18-51.66a.12.12,0,0,1,0-.1.13.13,0,0,1,.1-.06l23.09-2.56h0a.12.12,0,0,1,.12.12h0v0l-5.08,54.21a.14.14,0,0,1-.11.12Zm-17.86-51.68,17.78,51,5-53.5Z"/><path class="cls-3" d="M257.85,303.51h0L219,296.89a.12.12,0,0,1-.1-.12.1.1,0,0,1,.09-.12L266.62,286a.16.16,0,0,1,.12,0,.14.14,0,0,1,0,.16L258,303.44A.14.14,0,0,1,257.85,303.51Zm-38.14-6.76,38.07,6.49,8.65-16.92Z"/><path class="cls-3" d="M219.06,296.89a.11.11,0,0,1-.08,0,.12.12,0,0,1,0-.11l3.49-25.37a.15.15,0,0,1,.06-.09.14.14,0,0,1,.11,0L266.7,286a.13.13,0,0,1,.09.09.14.14,0,0,1,0,.12.07.07,0,0,1-.06,0l-47.6,10.63Zm3.6-25.33-3.45,25.05,47-10.49Z"/><path class="cls-3" d="M257.85,303.51a.13.13,0,0,1-.09,0,.11.11,0,0,1,0-.14l8.81-17.25a.14.14,0,0,1,.15-.06l18.7,5.41a.14.14,0,0,1,.08.09.12.12,0,0,1,0,.12l0,0L257.9,303.5Zm8.88-17.22-8.61,16.84L285,291.58Z"/><path class="cls-3" d="M332.55,324.83h-.05l-24.69-9.39a.13.13,0,0,1,0-.22l48.51-35.36a.13.13,0,0,1,.2,0,.11.11,0,0,1,0,.11l-23.82,44.75A.12.12,0,0,1,332.55,324.83Zm-24.44-9.55,24.38,9.27L356,280.37Z"/><path class="cls-3" d="M307.85,315.44a.12.12,0,0,1-.09,0l-22.49-23.76a.14.14,0,0,1,0-.13.16.16,0,0,1,.1-.08l71-11.61a.15.15,0,0,1,.13.09.12.12,0,0,1,0,.13l-48.52,35.38Zm-22.23-23.8,22.25,23.51,48-35Z"/><path class="cls-3" d="M332.55,324.83a.12.12,0,0,1-.11-.07.11.11,0,0,1,0-.13l37.1-49.83a.13.13,0,0,1,.14,0,.12.12,0,0,1,.09.12h0l-12.12,49.53a.12.12,0,0,1-.11.09l-25,.33Zm36.84-49.38L332.8,324.58l24.65-.33Z"/><path class="cls-3" d="M332.55,324.83l-.07,0a.13.13,0,0,1,0-.16l23.83-44.76a.09.09,0,0,1,.06-.06l13.26-5.06a.13.13,0,0,1,.19.11h0a.12.12,0,0,1,0,.09l-37.09,49.81A.14.14,0,0,1,332.55,324.83ZM356.46,280l-23,43.27,35.87-48.16Z"/><path class="cls-3" d="M357.54,324.5a.14.14,0,0,1-.11-.06.14.14,0,0,1,0-.15l60.73-57.53a.13.13,0,0,1,.2.15l-25.71,49.32a.16.16,0,0,1-.08.06l-35,8.21Zm60.28-57.05L358,324.15l34.52-8.09Z"/><path class="cls-3" d="M357.54,324.5h-.06a.13.13,0,0,1-.06-.14l12.11-49.5a.15.15,0,0,1,.1-.09l48.63-8a.11.11,0,0,1,.13.06.12.12,0,0,1,0,.15h0l-60.74,57.53A.12.12,0,0,1,357.54,324.5ZM369.76,275l-12,49L417.9,267Z"/><path class="cls-3" d="M392.57,316.3a.18.18,0,0,1-.09,0,.12.12,0,0,1,0-.15l25.71-49.32a.14.14,0,0,1,.12-.07.14.14,0,0,1,.11.09l9.2,28a.14.14,0,0,1,0,.11.1.1,0,0,1-.05,0l-34.9,21.28Zm25.68-49.13-25.36,48.66,34.44-21Z"/><path class="cls-3" d="M486.78,318.26h0l-56.59-21.95a.12.12,0,0,1-.08-.1.12.12,0,0,1,0-.11L462,269.88a.15.15,0,0,1,.21,0l24.64,48.16a.12.12,0,0,1,0,.14A.1.1,0,0,1,486.78,318.26Zm-56.34-22.1,56.08,21.74-24.43-47.73Z"/><path class="cls-3" d="M430.19,296.32h-.05L427.42,295a.14.14,0,0,1-.07-.1.13.13,0,0,1,.06-.11l34.65-24.92a.13.13,0,0,1,.19.06.12.12,0,0,1,0,.14l-31.94,26.22A.11.11,0,0,1,430.19,296.32Zm-2.47-1.45,2.45,1.18L459,272.35Z"/><path class="cls-3" d="M486.78,318.26a.11.11,0,0,1-.08,0,.11.11,0,0,1,0-.12l10.13-40a.14.14,0,0,1,.13-.11h0a.12.12,0,0,1,.12.13l.35,35.55a.12.12,0,0,1-.07.11l-10.49,4.43Zm10-39.14L487,317.93l10.18-4.3Z"/><path class="cls-3" d="M486.78,318.26a.11.11,0,0,1-.11-.06L462,270a.12.12,0,0,1,0-.13.14.14,0,0,1,.13,0L497,278a.12.12,0,0,1,.09.12v0l-10.14,40a.11.11,0,0,1-.11.09Zm-24.42-48.1,24.38,47.63,10-39.54Zm34.56,8Z"/><circle class="cls-4" cx="402.57" cy="17.19" r="2.48"/><path class="cls-4" d="M468.87,18.51a2.59,2.59,0,1,1-2.59-2.59A2.59,2.59,0,0,1,468.87,18.51Z"/><circle class="cls-5" cx="402.57" cy="17.19" r="1.4"/><path class="cls-4" d="M404.68,17.19a2.11,2.11,0,1,1-2.11-2.1A2.1,2.1,0,0,1,404.68,17.19Z"/><circle class="cls-6" cx="470.34" cy="-0.21" r="1.28"/><path class="cls-6" d="M467,18.51a.75.75,0,0,1-1.5,0,.75.75,0,0,1,1.5,0Z"/><path class="cls-6" d="M467.29,18.51a1,1,0,1,1-1-1A1,1,0,0,1,467.29,18.51Z"/><circle class="cls-5" cx="493.99" cy="3.25" r="1.36"/><path class="cls-6" d="M474.17-.21a3.82,3.82,0,0,1-3.83,3.82,3.82,3.82,0,0,1-3.82-3.82A3.82,3.82,0,0,1,470.34-4,3.82,3.82,0,0,1,474.17-.21Z"/><circle class="cls-6" cx="470.34" cy="-0.21" r="1.08"/><circle class="cls-6" cx="394.55" cy="38.17" r="1.36"/><circle class="cls-7" cx="402.57" cy="17.19" r="0.89"/><path class="cls-4" d="M426.31,26.92A1.32,1.32,0,1,1,425,25.6,1.31,1.31,0,0,1,426.31,26.92Z"/><circle class="cls-7" cx="394.55" cy="38.17" r="1.51"/><circle class="cls-4" cx="402.58" cy="17.2" r="2.63"/><circle class="cls-4" cx="402.57" cy="17.19" r="1.36"/><circle class="cls-4" cx="394.55" cy="38.17" r="1.15"/><circle class="cls-5" cx="402.58" cy="17.2" r="1.01"/><path class="cls-5" d="M468.87,18.51a2.59,2.59,0,1,1-2.59-2.58A2.59,2.59,0,0,1,468.87,18.51Z"/><path class="cls-6" d="M446.1,40.06a4,4,0,1,1-4-4A4,4,0,0,1,446.1,40.06Z"/><circle class="cls-5" cx="425" cy="26.92" r="0.64"/><circle class="cls-6" cx="466.28" cy="18.52" r="1.76"/><path class="cls-7" d="M467.31,18.51a1,1,0,1,1-1-1A1,1,0,0,1,467.31,18.51Z"/><circle class="cls-7" cx="402.57" cy="17.19" r="0.78"/><path class="cls-6" d="M425.61,26.92a.61.61,0,0,1-.61.61.61.61,0,0,1,0-1.22A.61.61,0,0,1,425.61,26.92Z"/><circle class="cls-7" cx="466.28" cy="18.52" r="0.46"/><circle class="cls-7" cx="470.34" cy="-0.21" r="0.7"/><path class="cls-6" d="M482.34,52.15a1.27,1.27,0,1,1-1.27-1.28A1.27,1.27,0,0,1,482.34,52.15Z"/><path class="cls-4" d="M443.12,40.06a1,1,0,1,1-1-1A1,1,0,0,1,443.12,40.06Z"/><path class="cls-6" d="M470.77-.21a.43.43,0,0,1-.43.43.44.44,0,0,1-.43-.43.43.43,0,0,1,.43-.43A.43.43,0,0,1,470.77-.21Z"/><circle class="cls-7" cx="470.34" cy="-0.21" r="0.33"/><path class="cls-5" d="M469.8,18.51A3.52,3.52,0,1,1,466.28,15,3.53,3.53,0,0,1,469.8,18.51Z"/><path class="cls-5" d="M443.44,40.06a1.31,1.31,0,1,1-1.31-1.3A1.3,1.3,0,0,1,443.44,40.06Z"/><path class="cls-5" d="M470.88-.21a.54.54,0,0,1-.54.53.53.53,0,0,1-.53-.53.54.54,0,0,1,.53-.54A.54.54,0,0,1,470.88-.21Z"/><circle class="cls-7" cx="493.99" cy="3.25" r="3.31"/><path class="cls-6" d="M483.56,52.15a2.49,2.49,0,1,1-2.49-2.49A2.49,2.49,0,0,1,483.56,52.15Z"/><path class="cls-4" d="M494.61,3.25a.62.62,0,0,1-.62.62.62.62,0,0,1-.62-.62.62.62,0,0,1,.62-.62A.61.61,0,0,1,494.61,3.25Z"/><path class="cls-7" d="M495.09,3.25a1.1,1.1,0,1,1-1.1-1.1A1.1,1.1,0,0,1,495.09,3.25Z"/><circle class="cls-5" cx="470.34" cy="-0.21" r="1.28"/><path class="cls-4" d="M481.57,52.15a.5.5,0,1,1-1,0,.5.5,0,1,1,1,0Z"/><circle class="cls-7" cx="493.99" cy="3.25" r="1.99"/><path class="cls-4" d="M395.15,38.17a.6.6,0,1,1-.6-.6A.6.6,0,0,1,395.15,38.17Z"/><path class="cls-4" d="M398.18,38.17a3.63,3.63,0,1,1-3.63-3.63A3.64,3.64,0,0,1,398.18,38.17Z"/><circle class="cls-6" cx="394.55" cy="38.17" r="1"/><path class="cls-7" d="M395,38.17a.4.4,0,1,1-.4-.4A.4.4,0,0,1,395,38.17Z"/><path class="cls-6" d="M425.85,26.92a.86.86,0,0,1-1.71,0,.86.86,0,1,1,1.71,0Z"/><path class="cls-7" d="M429.57,75.08a1.77,1.77,0,1,1-1.77-1.77A1.76,1.76,0,0,1,429.57,75.08Z"/><circle class="cls-6" cx="425" cy="26.92" r="1.81"/><circle class="cls-6" cx="425" cy="26.92" r="0.81"/><circle class="cls-7" cx="394.55" cy="38.17" r="3.32"/><path class="cls-5" d="M425.44,26.92a.44.44,0,0,1-.44.44.44.44,0,1,1,0-.88A.44.44,0,0,1,425.44,26.92Z"/><path class="cls-7" d="M442.88,40.06a.76.76,0,0,1-.75.75.75.75,0,0,1-.74-.75.74.74,0,0,1,.74-.74A.75.75,0,0,1,442.88,40.06Z"/><circle class="cls-6" cx="450.71" cy="73.77" r="0.72"/><path class="cls-6" d="M429.89,75.08A2.09,2.09,0,1,1,427.8,73,2.09,2.09,0,0,1,429.89,75.08Z"/><circle class="cls-7" cx="442.13" cy="40.06" r="1.47"/><path class="cls-6" d="M443.47,40.06a1.34,1.34,0,1,1-1.34-1.34A1.34,1.34,0,0,1,443.47,40.06Z"/><circle class="cls-7" cx="425" cy="26.92" r="1.31"/><path class="cls-7" d="M429,75.08a1.21,1.21,0,1,1-1.21-1.21A1.21,1.21,0,0,1,429,75.08Z"/><circle class="cls-5" cx="442.13" cy="40.06" r="2.31"/><path class="cls-6" d="M483.55,52.15a2.48,2.48,0,1,1-2.48-2.48A2.48,2.48,0,0,1,483.55,52.15Z"/><circle class="cls-5" cx="474.23" cy="62.59" r="2.03"/><path class="cls-5" d="M452.65,73.77a1.94,1.94,0,1,1-1.94-1.94A1.94,1.94,0,0,1,452.65,73.77Z"/><path class="cls-4" d="M482.53,52.15a1.46,1.46,0,1,1-1.46-1.46A1.46,1.46,0,0,1,482.53,52.15Z"/><path class="cls-7" d="M482.41,52.15a1.34,1.34,0,1,1-1.34-1.34A1.34,1.34,0,0,1,482.41,52.15Z"/><circle class="cls-6" cx="442.13" cy="40.06" r="2.04"/><circle class="cls-7" cx="450.71" cy="73.77" r="1.04"/><circle class="cls-6" cx="481.07" cy="52.15" r="3.59"/><circle class="cls-4" cx="474.23" cy="62.59" r="1.48"/><path class="cls-7" d="M483.23,52.15A2.16,2.16,0,1,1,481.07,50,2.16,2.16,0,0,1,483.23,52.15Z"/><circle class="cls-5" cx="474.23" cy="62.59" r="1.63"/><path class="cls-5" d="M428.22,75.08a.42.42,0,0,1-.84,0,.42.42,0,1,1,.84,0Z"/><circle class="cls-7" cx="389.99" cy="99.56" r="0.37"/><path class="cls-6" d="M428.22,75.08a.42.42,0,1,1-.42-.42A.42.42,0,0,1,428.22,75.08Z"/><path class="cls-7" d="M429.43,75.08a1.64,1.64,0,1,1-1.63-1.64A1.63,1.63,0,0,1,429.43,75.08Z"/><path class="cls-5" d="M429,75.08a1.2,1.2,0,1,1-1.2-1.2A1.19,1.19,0,0,1,429,75.08Z"/><path class="cls-7" d="M452.93,73.77a2.22,2.22,0,1,1-2.22-2.22A2.22,2.22,0,0,1,452.93,73.77Z"/><circle class="cls-7" cx="447.12" cy="117.99" r="0.74"/><circle class="cls-4" cx="450.71" cy="73.77" r="1.07"/><path class="cls-6" d="M452,73.77a1.28,1.28,0,1,1-1.28-1.28A1.28,1.28,0,0,1,452,73.77Z"/><path class="cls-5" d="M431,75.08a3.23,3.23,0,1,1-3.23-3.23A3.23,3.23,0,0,1,431,75.08Z"/><circle class="cls-6" cx="450.71" cy="73.77" r="1.4"/><circle class="cls-7" cx="474.23" cy="62.59" r="0.32"/><circle class="cls-6" cx="475.22" cy="96.12" r="2.44"/><path class="cls-6" d="M448.89,118a1.77,1.77,0,1,1-1.77-1.77A1.77,1.77,0,0,1,448.89,118Z"/><path class="cls-7" d="M476.15,62.59a1.93,1.93,0,1,1-1.92-1.93A1.92,1.92,0,0,1,476.15,62.59Z"/><circle class="cls-7" cx="474.23" cy="62.59" r="0.41"/><path class="cls-5" d="M451.45,73.77a.74.74,0,1,1-.74-.74A.74.74,0,0,1,451.45,73.77Z"/><circle class="cls-4" cx="447.12" cy="117.99" r="2.15"/><path class="cls-7" d="M476.42,62.59a2.2,2.2,0,1,1-2.19-2.19A2.19,2.19,0,0,1,476.42,62.59Z"/><circle class="cls-7" cx="475.22" cy="96.12" r="1.13"/><circle class="cls-7" cx="474.23" cy="62.59" r="1.18"/><circle class="cls-7" cx="475.22" cy="96.12" r="1.95"/><path class="cls-6" d="M388.47,123.67a.66.66,0,1,1-.66-.67A.67.67,0,0,1,388.47,123.67Z"/><path class="cls-6" d="M426.3,139.94a2.25,2.25,0,1,1-2.25-2.25A2.25,2.25,0,0,1,426.3,139.94Z"/><circle class="cls-6" cx="387.81" cy="123.67" r="1.34"/><path class="cls-7" d="M388.86,123.67a1.06,1.06,0,0,1-2.11,0,1.06,1.06,0,1,1,2.11,0Z"/><path class="cls-6" d="M449.72,118a2.6,2.6,0,1,1-2.6-2.59A2.6,2.6,0,0,1,449.72,118Z"/><path class="cls-5" d="M450.84,133.56a1,1,0,1,1-1-1A1,1,0,0,1,450.84,133.56Z"/><path class="cls-6" d="M426.13,139.94a2.08,2.08,0,1,1-2.08-2.08A2.08,2.08,0,0,1,426.13,139.94Z"/><path class="cls-5" d="M450.67,118a3.56,3.56,0,1,1-3.55-3.55A3.55,3.55,0,0,1,450.67,118Z"/><circle class="cls-7" cx="447.12" cy="117.99" r="1.94"/><path class="cls-6" d="M425.6,139.94a1.55,1.55,0,1,1-1.55-1.55A1.55,1.55,0,0,1,425.6,139.94Z"/><path class="cls-7" d="M449.81,118a2.69,2.69,0,1,1-2.69-2.69A2.69,2.69,0,0,1,449.81,118Z"/><circle class="cls-7" cx="475.22" cy="96.12" r="0.89"/><circle class="cls-4" cx="473.15" cy="122.34" r="0.77"/><path class="cls-6" d="M450.82,133.56a1,1,0,0,1-2,0,1,1,0,0,1,2,0Z"/><path class="cls-7" d="M477,96.12a1.76,1.76,0,1,1-1.76-1.77A1.76,1.76,0,0,1,477,96.12Z"/><circle class="cls-7" cx="475.22" cy="96.12" r="0.85"/><circle class="cls-6" cx="447.12" cy="117.99" r="0.59"/><path class="cls-7" d="M452.91,133.56a3.1,3.1,0,1,1-3.1-3.09A3.1,3.1,0,0,1,452.91,133.56Z"/><path class="cls-6" d="M476.43,96.12a1.21,1.21,0,1,1-1.21-1.22A1.21,1.21,0,0,1,476.43,96.12Z"/><path class="cls-6" d="M500.84,136a1,1,0,1,1-1-1A1,1,0,0,1,500.84,136Z"/><circle class="cls-6" cx="473.15" cy="122.34" r="0.79"/><circle class="cls-6" cx="475.22" cy="96.12" r="2.22"/><circle class="cls-6" cx="473.15" cy="122.34" r="0.52"/><path class="cls-4" d="M203.4,167.8a2,2,0,1,1-2-2A2,2,0,0,1,203.4,167.8Z"/><path class="cls-7" d="M202.17,167.8a.75.75,0,1,1-.75-.75A.75.75,0,0,1,202.17,167.8Z"/><path class="cls-6" d="M202.32,167.8a.9.9,0,1,1-.9-.9A.89.89,0,0,1,202.32,167.8Z"/><path class="cls-4" d="M347.25,165.59a1.69,1.69,0,1,1-1.69-1.69A1.69,1.69,0,0,1,347.25,165.59Z"/><path class="cls-4" d="M389.43,123.67a1.62,1.62,0,1,1-1.62-1.62A1.63,1.63,0,0,1,389.43,123.67Z"/><path class="cls-7" d="M367.21,176.41a1.25,1.25,0,1,1-1.25-1.25A1.25,1.25,0,0,1,367.21,176.41Z"/><path class="cls-4" d="M346.8,165.59a1.24,1.24,0,1,1-1.24-1.24A1.24,1.24,0,0,1,346.8,165.59Z"/><path class="cls-4" d="M388.72,123.66a.92.92,0,1,1-.91-.91A.92.92,0,0,1,388.72,123.66Z"/><path class="cls-7" d="M391,123.67a3.16,3.16,0,1,1-3.15-3.16A3.15,3.15,0,0,1,391,123.67Z"/><circle class="cls-6" cx="345.56" cy="165.59" r="3.18"/><path class="cls-7" d="M388.71,123.66a.91.91,0,1,1-.9-.9A.9.9,0,0,1,388.71,123.66Z"/><path class="cls-4" d="M427.19,139.94a3.14,3.14,0,1,1-3.14-3.14A3.15,3.15,0,0,1,427.19,139.94Z"/><path class="cls-7" d="M390.28,150.45a1.42,1.42,0,1,1-2.83,0,1.42,1.42,0,0,1,2.83,0Z"/><path class="cls-4" d="M367,176.41a1,1,0,1,1-1-1A1,1,0,0,1,367,176.41Z"/><path class="cls-7" d="M425.52,139.94a1.48,1.48,0,1,1-1.47-1.48A1.47,1.47,0,0,1,425.52,139.94Z"/><path class="cls-7" d="M426.57,139.94a2.52,2.52,0,1,1-2.52-2.52A2.52,2.52,0,0,1,426.57,139.94Z"/><circle class="cls-5" cx="387.81" cy="123.67" r="0.86"/><path class="cls-5" d="M366.73,176.41a.77.77,0,1,1-.77-.77A.77.77,0,0,1,366.73,176.41Z"/><path class="cls-4" d="M424.89,139.94a.84.84,0,1,1-.84-.84A.85.85,0,0,1,424.89,139.94Z"/><circle class="cls-4" cx="449.81" cy="133.56" r="1.19"/><path class="cls-6" d="M462.39,162a3.23,3.23,0,1,1-3.23-3.24A3.23,3.23,0,0,1,462.39,162Z"/><path class="cls-4" d="M390.53,150.45a1.67,1.67,0,1,1-3.33,0,1.67,1.67,0,0,1,3.33,0Z"/><path class="cls-7" d="M451.62,133.57a1.81,1.81,0,1,1-1.8-1.81A1.81,1.81,0,0,1,451.62,133.57Z"/><path class="cls-5" d="M452.53,133.56a2.72,2.72,0,1,1-2.72-2.71A2.72,2.72,0,0,1,452.53,133.56Z"/><path class="cls-6" d="M426.64,139.94a2.59,2.59,0,1,1-2.59-2.58A2.59,2.59,0,0,1,426.64,139.94Z"/><path class="cls-7" d="M390.09,150.45a1.23,1.23,0,1,1-1.23-1.23A1.23,1.23,0,0,1,390.09,150.45Z"/><circle class="cls-4" cx="449.82" cy="133.57" r="2.55"/><path class="cls-4" d="M475.32,122.34a2.18,2.18,0,1,1-2.17-2.17A2.17,2.17,0,0,1,475.32,122.34Z"/><circle class="cls-7" cx="498.89" cy="175.83" r="1.16"/><path class="cls-6" d="M462.25,162a3.09,3.09,0,1,1-3.09-3.09A3.08,3.08,0,0,1,462.25,162Z"/><circle class="cls-4" cx="473.14" cy="122.35" r="1.54"/><circle class="cls-6" cx="473.15" cy="122.34" r="2.88"/><path class="cls-6" d="M452.48,133.56a2.67,2.67,0,1,1-2.67-2.67A2.66,2.66,0,0,1,452.48,133.56Z"/><circle class="cls-4" cx="459.16" cy="161.96" r="0.23"/><path class="cls-6" d="M475.15,122.35a2,2,0,1,1-2-2A2,2,0,0,1,475.15,122.35Z"/><circle class="cls-6" cx="499.84" cy="136" r="0.42"/><path class="cls-7" d="M499.47,175.83a.58.58,0,0,1-.58.57.58.58,0,0,1,0-1.15A.58.58,0,0,1,499.47,175.83Z"/><path class="cls-7" d="M500.62,136a.79.79,0,1,1-.79-.79A.79.79,0,0,1,500.62,136Z"/><path class="cls-5" d="M501.51,136a1.68,1.68,0,1,1-1.67-1.68A1.67,1.67,0,0,1,501.51,136Z"/><circle class="cls-7" cx="473.15" cy="122.34" r="0.61"/><path class="cls-7" d="M500.19,175.83a1.3,1.3,0,1,1-1.3-1.3A1.3,1.3,0,0,1,500.19,175.83Z"/><path class="cls-6" d="M501.17,136a1.34,1.34,0,1,1-1.34-1.34A1.33,1.33,0,0,1,501.17,136Z"/><path class="cls-7" d="M150.2,201.8a1.41,1.41,0,1,1-1.4-1.4A1.4,1.4,0,0,1,150.2,201.8Z"/><circle class="cls-5" cx="201.42" cy="167.8" r="0.64"/><circle class="cls-5" cx="202.35" cy="196.96" r="0.76"/><path class="cls-6" d="M149.55,201.8a.76.76,0,1,1-.75-.76A.76.76,0,0,1,149.55,201.8Z"/><path class="cls-6" d="M205.1,167.8a3.68,3.68,0,1,1-3.68-3.68A3.67,3.67,0,0,1,205.1,167.8Z"/><path class="cls-7" d="M202.83,167.8a1.41,1.41,0,1,1-1.41-1.4A1.41,1.41,0,0,1,202.83,167.8Z"/><path class="cls-4" d="M149.65,201.8a.86.86,0,1,1-.85-.85A.85.85,0,0,1,149.65,201.8Z"/><path class="cls-6" d="M202.78,167.8a1.36,1.36,0,1,1-1.36-1.36A1.36,1.36,0,0,1,202.78,167.8Z"/><circle class="cls-7" cx="213.79" cy="178.29" r="2.31"/><circle class="cls-4" cx="202.35" cy="196.96" r="1.91"/><circle class="cls-6" cx="201.42" cy="167.8" r="0.42"/><path class="cls-7" d="M204.58,197a2.23,2.23,0,1,1-2.23-2.22A2.23,2.23,0,0,1,204.58,197Z"/><circle class="cls-6" cx="213.79" cy="178.29" r="3.82"/><path class="cls-6" d="M215.4,178.29a1.62,1.62,0,0,1-3.23,0,1.62,1.62,0,1,1,3.23,0Z"/><path class="cls-7" d="M294.89,181a2,2,0,1,1-2-2A2,2,0,0,1,294.89,181Z"/><path class="cls-5" d="M348.38,165.59a2.82,2.82,0,1,1-2.82-2.82A2.82,2.82,0,0,1,348.38,165.59Z"/><circle class="cls-4" cx="352.74" cy="188.58" r="2.33"/><path class="cls-7" d="M293.76,181a.88.88,0,1,1-.87-.87A.87.87,0,0,1,293.76,181Z"/><path class="cls-6" d="M346.81,165.59a1.25,1.25,0,1,1-1.25-1.25A1.25,1.25,0,0,1,346.81,165.59Z"/><path class="cls-7" d="M347.33,165.59a1.77,1.77,0,1,1-1.77-1.77A1.76,1.76,0,0,1,347.33,165.59Z"/><path class="cls-7" d="M294.57,181a1.68,1.68,0,1,1-1.68-1.68A1.68,1.68,0,0,1,294.57,181Z"/><circle class="cls-6" cx="345.56" cy="165.59" r="1.12"/><path class="cls-4" d="M366.64,176.41a.68.68,0,1,1-.68-.67A.67.67,0,0,1,366.64,176.41Z"/><circle class="cls-7" cx="393.61" cy="199.57" r="0.73"/><circle class="cls-6" cx="352.74" cy="188.58" r="0.61"/><path class="cls-6" d="M366.78,176.41a.82.82,0,1,1-1.63,0,.82.82,0,0,1,1.63,0Z"/><path class="cls-4" d="M367.1,176.41a1.14,1.14,0,1,1-1.14-1.13A1.13,1.13,0,0,1,367.1,176.41Z"/><path class="cls-4" d="M347,165.59a1.43,1.43,0,1,1-1.43-1.43A1.43,1.43,0,0,1,347,165.59Z"/><path class="cls-7" d="M356.75,188.58a4,4,0,1,1-4-4A4,4,0,0,1,356.75,188.58Z"/><circle class="cls-6" cx="365.96" cy="176.41" r="1.61"/><path class="cls-4" d="M390.83,150.45a2,2,0,1,1-2-2A2,2,0,0,1,390.83,150.45Z"/><circle class="cls-6" cx="422.04" cy="176.65" r="1.75"/><circle class="cls-6" cx="393.61" cy="199.57" r="0.74"/><circle class="cls-6" cx="388.86" cy="150.45" r="1.13"/><path class="cls-5" d="M392.36,150.45a3.5,3.5,0,1,1-3.5-3.49A3.5,3.5,0,0,1,392.36,150.45Z"/><path class="cls-7" d="M367.39,176.41A1.43,1.43,0,1,1,366,175,1.43,1.43,0,0,1,367.39,176.41Z"/><path class="cls-6" d="M395.07,199.57a1.47,1.47,0,1,1-1.46-1.47A1.46,1.46,0,0,1,395.07,199.57Z"/><path class="cls-7" d="M389.62,150.45a.76.76,0,1,1-.76-.76A.76.76,0,0,1,389.62,150.45Z"/><path class="cls-4" d="M460.15,162a1,1,0,1,1-1-1A1,1,0,0,1,460.15,162Z"/><path class="cls-7" d="M462.87,194.81a.62.62,0,0,1-.62.62.61.61,0,0,1-.62-.62.62.62,0,0,1,.62-.62A.62.62,0,0,1,462.87,194.81Z"/><path class="cls-6" d="M422.94,176.65a.91.91,0,1,1-.9-.91A.9.9,0,0,1,422.94,176.65Z"/><path class="cls-4" d="M459.78,162a.62.62,0,0,1-.62.63.63.63,0,0,1,0-1.25A.62.62,0,0,1,459.78,162Z"/><path class="cls-6" d="M460.74,162a1.58,1.58,0,1,1-1.58-1.58A1.58,1.58,0,0,1,460.74,162Z"/><path class="cls-7" d="M390.13,150.45a1.27,1.27,0,1,1-2.53,0,1.27,1.27,0,0,1,2.53,0Z"/><path class="cls-6" d="M424,176.65a1.92,1.92,0,1,1-1.91-1.91A1.91,1.91,0,0,1,424,176.65Z"/><path class="cls-7" d="M460,162a.81.81,0,1,1-.81-.81A.82.82,0,0,1,460,162Z"/><path class="cls-7" d="M500.28,175.83a1.39,1.39,0,1,1-1.39-1.4A1.39,1.39,0,0,1,500.28,175.83Z"/><path class="cls-6" d="M491,182a.4.4,0,1,1-.39-.39A.39.39,0,0,1,491,182Z"/><path class="cls-6" d="M463.26,194.81a1,1,0,1,1-1-1A1,1,0,0,1,463.26,194.81Z"/><path class="cls-4" d="M499.89,175.83a1,1,0,1,1-1-1A1,1,0,0,1,499.89,175.83Z"/><path class="cls-5" d="M499.83,175.83a.94.94,0,1,1-.94-.94A.94.94,0,0,1,499.83,175.83Z"/><circle class="cls-5" cx="459.16" cy="161.96" r="3.57"/><path class="cls-6" d="M463.43,194.81a1.19,1.19,0,1,1-1.18-1.18A1.18,1.18,0,0,1,463.43,194.81Z"/><path class="cls-7" d="M500,175.83a1.13,1.13,0,1,1-1.13-1.13A1.13,1.13,0,0,1,500,175.83Z"/><path class="cls-5" d="M503.81,191.14a1.6,1.6,0,0,1-3.19,0,1.6,1.6,0,1,1,3.19,0Z"/><path class="cls-4" d="M492.33,182a1.71,1.71,0,1,1-1.71-1.71A1.72,1.72,0,0,1,492.33,182Z"/><path class="cls-5" d="M499.23,175.83a.34.34,0,1,1-.34-.34A.34.34,0,0,1,499.23,175.83Z"/><path class="cls-6" d="M492.12,182a1.5,1.5,0,1,1-1.5-1.5A1.5,1.5,0,0,1,492.12,182Z"/><path class="cls-6" d="M16.39,213.5a1,1,0,1,1-1-1A1,1,0,0,1,16.39,213.5Z"/><circle class="cls-7" cx="73.6" cy="231.03" r="0.92"/><circle class="cls-5" cx="15.37" cy="213.5" r="0.36"/><path class="cls-6" d="M18.57,213.5a3.2,3.2,0,1,1-3.2-3.2A3.19,3.19,0,0,1,18.57,213.5Z"/><path class="cls-7" d="M74.55,231a1,1,0,1,1-1.9,0,1,1,0,0,1,1.9,0Z"/><circle class="cls-7" cx="73.6" cy="231.03" r="1.1"/><path class="cls-7" d="M141.2,205.34a.7.7,0,1,1-.7-.7A.7.7,0,0,1,141.2,205.34Z"/><path class="cls-6" d="M150.67,201.8a1.88,1.88,0,1,1-1.87-1.87A1.87,1.87,0,0,1,150.67,201.8Z"/><circle class="cls-6" cx="149.64" cy="215.18" r="1.36"/><path class="cls-5" d="M150.06,201.8a1.27,1.27,0,1,1-1.26-1.27A1.26,1.26,0,0,1,150.06,201.8Z"/><circle class="cls-6" cx="148.8" cy="201.8" r="0.74"/><path class="cls-5" d="M142.26,205.34a1.76,1.76,0,1,1-1.76-1.75A1.75,1.75,0,0,1,142.26,205.34Z"/><circle class="cls-5" cx="148.8" cy="201.8" r="1.35"/><path class="cls-6" d="M203.43,197a1.08,1.08,0,1,1-1.08-1.07A1.08,1.08,0,0,1,203.43,197Z"/><path class="cls-5" d="M209.29,219.23a.34.34,0,1,1-.34-.34A.34.34,0,0,1,209.29,219.23Z"/><path class="cls-6" d="M151,215.18a1.32,1.32,0,1,1-1.31-1.31A1.32,1.32,0,0,1,151,215.18Z"/><path class="cls-7" d="M205,197a2.66,2.66,0,1,1-2.66-2.66A2.66,2.66,0,0,1,205,197Z"/><path class="cls-7" d="M203.68,197a1.33,1.33,0,1,1-1.33-1.32A1.32,1.32,0,0,1,203.68,197Z"/><path class="cls-7" d="M149.84,201.8a1,1,0,1,1-1-1A1,1,0,0,1,149.84,201.8Z"/><circle class="cls-4" cx="149.64" cy="215.18" r="1.64"/><path class="cls-7" d="M203,197a.67.67,0,1,1-.67-.66A.67.67,0,0,1,203,197Z"/><circle class="cls-7" cx="213.79" cy="178.29" r="0.24"/><path class="cls-4" d="M257,223.52a3.74,3.74,0,1,1-3.74-3.74A3.75,3.75,0,0,1,257,223.52Z"/><circle class="cls-6" cx="208.95" cy="219.23" r="1.45"/><path class="cls-6" d="M214.56,178.29a.78.78,0,0,1-1.55,0,.78.78,0,1,1,1.55,0Z"/><path class="cls-7" d="M215.27,178.29a1.49,1.49,0,0,1-3,0,1.49,1.49,0,1,1,3,0Z"/><path class="cls-7" d="M203.65,197a1.3,1.3,0,1,1-1.3-1.3A1.31,1.31,0,0,1,203.65,197Z"/><circle class="cls-6" cx="208.95" cy="219.23" r="0.43"/><circle class="cls-5" cx="213.79" cy="178.29" r="0.99"/><path class="cls-7" d="M253.69,212.44a.25.25,0,0,1-.5,0,.25.25,0,1,1,.5,0Z"/><path class="cls-6" d="M254.08,223.52a.85.85,0,1,1-.85-.85A.85.85,0,0,1,254.08,223.52Z"/><circle class="cls-4" cx="213.79" cy="178.29" r="1.46"/><path class="cls-4" d="M254.56,223.52a1.33,1.33,0,1,1-1.33-1.33A1.32,1.32,0,0,1,254.56,223.52Z"/><path class="cls-5" d="M294.23,181a1.35,1.35,0,1,1-1.34-1.34A1.35,1.35,0,0,1,294.23,181Z"/><path class="cls-6" d="M307.19,227.1a1.61,1.61,0,1,1-1.61-1.61A1.61,1.61,0,0,1,307.19,227.1Z"/><path class="cls-6" d="M255,212.44a1.56,1.56,0,1,1-1.56-1.57A1.56,1.56,0,0,1,255,212.44Z"/><circle class="cls-7" cx="292.89" cy="181" r="1.59"/><path class="cls-7" d="M295.71,181a2.83,2.83,0,1,1-2.82-2.83A2.83,2.83,0,0,1,295.71,181Z"/><path class="cls-6" d="M255,212.44a1.57,1.57,0,1,1-1.57-1.58A1.57,1.57,0,0,1,255,212.44Z"/><path class="cls-5" d="M295.1,181a2.22,2.22,0,1,1-2.21-2.21A2.21,2.21,0,0,1,295.1,181Z"/><path class="cls-4" d="M354.57,188.58a1.84,1.84,0,1,1-1.83-1.84A1.83,1.83,0,0,1,354.57,188.58Z"/><circle class="cls-7" cx="356.13" cy="205.21" r="0.58"/><path class="cls-7" d="M307.12,227.1a1.55,1.55,0,1,1-1.54-1.55A1.54,1.54,0,0,1,307.12,227.1Z"/><circle class="cls-4" cx="352.74" cy="188.58" r="2.46"/><path class="cls-4" d="M354.33,188.58a1.59,1.59,0,1,1-1.59-1.59A1.59,1.59,0,0,1,354.33,188.58Z"/><circle class="cls-5" cx="292.89" cy="181" r="1.4"/><circle class="cls-6" cx="305.58" cy="227.1" r="0.79"/><path class="cls-4" d="M354,188.58a1.25,1.25,0,1,1-1.24-1.25A1.24,1.24,0,0,1,354,188.58Z"/><circle class="cls-6" cx="393.61" cy="199.57" r="0.76"/><path class="cls-4" d="M378.78,206.45a1.74,1.74,0,1,1-1.74-1.74A1.74,1.74,0,0,1,378.78,206.45Z"/><path class="cls-6" d="M356.91,205.21a.78.78,0,1,1-.78-.78A.78.78,0,0,1,356.91,205.21Z"/><circle class="cls-6" cx="393.6" cy="199.57" r="0.39"/><circle class="cls-6" cx="393.61" cy="199.57" r="2.49"/><path class="cls-6" d="M354.35,188.58a1.62,1.62,0,1,1-1.61-1.61A1.62,1.62,0,0,1,354.35,188.58Z"/><circle class="cls-7" cx="356.13" cy="205.21" r="1.21"/><path class="cls-6" d="M396.19,199.57A2.59,2.59,0,1,1,393.6,197,2.58,2.58,0,0,1,396.19,199.57Z"/><path class="cls-5" d="M423.82,176.65a1.79,1.79,0,1,1-1.78-1.79A1.79,1.79,0,0,1,423.82,176.65Z"/><path class="cls-5" d="M419.61,205.37a2.15,2.15,0,1,1-2.15-2.14A2.14,2.14,0,0,1,419.61,205.37Z"/><path class="cls-6" d="M380.72,206.45a3.69,3.69,0,1,1-3.68-3.69A3.69,3.69,0,0,1,380.72,206.45Z"/><circle class="cls-5" cx="422.03" cy="176.65" r="1.99"/><path class="cls-6" d="M424.67,176.65A2.64,2.64,0,1,1,422,174,2.63,2.63,0,0,1,424.67,176.65Z"/><path class="cls-5" d="M394,199.57a.41.41,0,1,1-.4-.4A.4.4,0,0,1,394,199.57Z"/><path class="cls-6" d="M379.9,206.45a2.87,2.87,0,1,1-2.86-2.86A2.86,2.86,0,0,1,379.9,206.45Z"/><path class="cls-6" d="M422.43,176.65a.4.4,0,0,1-.79,0,.4.4,0,1,1,.79,0Z"/><path class="cls-6" d="M462.61,194.81a.36.36,0,0,1-.36.37.37.37,0,1,1,0-.73A.36.36,0,0,1,462.61,194.81Z"/><path class="cls-4" d="M431.18,212.16a.51.51,0,1,1-.51-.52A.51.51,0,0,1,431.18,212.16Z"/><path class="cls-7" d="M419.48,205.37a2,2,0,1,1-2-2A2,2,0,0,1,419.48,205.37Z"/><path class="cls-4" d="M462.69,194.82a.44.44,0,0,1-.44.44.44.44,0,0,1-.44-.44.43.43,0,0,1,.44-.44A.44.44,0,0,1,462.69,194.82Z"/><path class="cls-6" d="M464.56,194.81a2.31,2.31,0,1,1-2.31-2.31A2.31,2.31,0,0,1,464.56,194.81Z"/><path class="cls-6" d="M422.93,176.65a.9.9,0,1,1-.89-.9A.89.89,0,0,1,422.93,176.65Z"/><path class="cls-6" d="M418,205.37a.55.55,0,0,1-.55.54.54.54,0,1,1,0-1.08A.55.55,0,0,1,418,205.37Z"/><path class="cls-7" d="M462.9,194.82a.66.66,0,1,1-.65-.66A.65.65,0,0,1,462.9,194.82Z"/><path class="cls-4" d="M491.82,182a1.2,1.2,0,1,1-1.2-1.2A1.2,1.2,0,0,1,491.82,182Z"/><path class="cls-6" d="M494.9,231.27a.72.72,0,1,1-.72-.72A.71.71,0,0,1,494.9,231.27Z"/><path class="cls-7" d="M432.62,212.16a2,2,0,1,1-1.95-2A1.95,1.95,0,0,1,432.62,212.16Z"/><path class="cls-6" d="M491.68,182a1.06,1.06,0,1,1-1.06-1.06A1.05,1.05,0,0,1,491.68,182Z"/><path class="cls-7" d="M491.82,182a1.2,1.2,0,1,1-1.2-1.2A1.2,1.2,0,0,1,491.82,182Z"/><path class="cls-7" d="M463.09,194.81a.85.85,0,1,1-.84-.84A.85.85,0,0,1,463.09,194.81Z"/><path class="cls-5" d="M431.29,212.16a.62.62,0,1,1-1.24,0,.62.62,0,0,1,1.24,0Z"/><path class="cls-5" d="M491.79,182a1.18,1.18,0,1,1-1.17-1.18A1.17,1.17,0,0,1,491.79,182Z"/><circle class="cls-6" cx="502.22" cy="191.14" r="1.01"/><path class="cls-5" d="M501.71,212.84a1.08,1.08,0,1,1-1.08-1.08A1.08,1.08,0,0,1,501.71,212.84Z"/><circle class="cls-4" cx="494.18" cy="231.27" r="2.43"/><circle class="cls-5" cx="502.22" cy="191.14" r="2.29"/><path class="cls-7" d="M503.9,191.14a1.69,1.69,0,0,1-3.37,0,1.69,1.69,0,1,1,3.37,0Z"/><path class="cls-7" d="M491.83,182a1.21,1.21,0,1,1-1.21-1.21A1.21,1.21,0,0,1,491.83,182Z"/><circle class="cls-7" cx="494.18" cy="231.27" r="0.59"/><circle class="cls-6" cx="502.22" cy="191.14" r="1.88"/><path class="cls-5" d="M16.94,213.5a1.57,1.57,0,1,1-1.57-1.58A1.57,1.57,0,0,1,16.94,213.5Z"/><path class="cls-7" d="M33.82,234.71A1.68,1.68,0,1,1,32.14,233,1.68,1.68,0,0,1,33.82,234.71Z"/><path class="cls-7" d="M4.18,260.72a.42.42,0,1,1-.42-.42A.42.42,0,0,1,4.18,260.72Z"/><path class="cls-7" d="M17.51,213.5a2.14,2.14,0,1,1-2.14-2.14A2.13,2.13,0,0,1,17.51,213.5Z"/><path class="cls-4" d="M74.72,231a1.12,1.12,0,1,1-1.12-1.12A1.12,1.12,0,0,1,74.72,231Z"/><path class="cls-6" d="M39.94,264.48a1,1,0,1,1-1-1A1,1,0,0,1,39.94,264.48Z"/><path class="cls-4" d="M34.76,234.71a2.62,2.62,0,1,1-2.62-2.61A2.61,2.61,0,0,1,34.76,234.71Z"/><path class="cls-6" d="M74.93,231a1.33,1.33,0,1,1-1.33-1.33A1.34,1.34,0,0,1,74.93,231Z"/><circle class="cls-7" cx="73.6" cy="231.03" r="1.31"/><circle class="cls-7" cx="15.37" cy="213.5" r="1.23"/><path class="cls-7" d="M36,234.71a3.89,3.89,0,1,1-3.89-3.88A3.89,3.89,0,0,1,36,234.71Z"/><path class="cls-7" d="M74.38,231a.78.78,0,1,1-.78-.78A.78.78,0,0,1,74.38,231Z"/><path class="cls-7" d="M89.34,240.57A1.36,1.36,0,1,1,88,239.21,1.36,1.36,0,0,1,89.34,240.57Z"/><path class="cls-5" d="M41.35,264.48A2.46,2.46,0,1,1,38.9,262,2.46,2.46,0,0,1,41.35,264.48Z"/><circle class="cls-6" cx="73.6" cy="231.03" r="0.55"/><circle class="cls-5" cx="38.9" cy="264.48" r="0.46"/><path class="cls-5" d="M123.49,245.69a2.46,2.46,0,1,1-2.46-2.46A2.46,2.46,0,0,1,123.49,245.69Z"/><path class="cls-7" d="M89.62,240.57A1.64,1.64,0,1,1,88,238.94,1.64,1.64,0,0,1,89.62,240.57Z"/><circle class="cls-7" cx="140.5" cy="205.34" r="1.62"/><path class="cls-7" d="M90.69,240.57a2.71,2.71,0,1,1-2.71-2.7A2.71,2.71,0,0,1,90.69,240.57Z"/><path class="cls-4" d="M142.2,205.34a1.7,1.7,0,1,1-1.7-1.69A1.7,1.7,0,0,1,142.2,205.34Z"/><circle class="cls-6" cx="149.64" cy="215.18" r="1.81"/><circle class="cls-7" cx="172.34" cy="247.2" r="0.9"/><path class="cls-7" d="M122.66,245.69a1.63,1.63,0,1,1-1.63-1.63A1.63,1.63,0,0,1,122.66,245.69Z"/><circle class="cls-6" cx="149.64" cy="215.18" r="1.11"/><path class="cls-6" d="M152.08,215.18a2.45,2.45,0,1,1-2.44-2.44A2.45,2.45,0,0,1,152.08,215.18Z"/><path class="cls-6" d="M141.14,205.34a.64.64,0,0,1-.64.64.64.64,0,0,1-.63-.64.63.63,0,0,1,.63-.63A.64.64,0,0,1,141.14,205.34Z"/><circle class="cls-5" cx="121.03" cy="245.69" r="1.35"/><path class="cls-5" d="M150.17,215.18a.54.54,0,1,1-.53-.53A.53.53,0,0,1,150.17,215.18Z"/><path class="cls-7" d="M211.88,219.23A2.93,2.93,0,1,1,209,216.3,2.93,2.93,0,0,1,211.88,219.23Z"/><path class="cls-4" d="M207.9,248.73a.64.64,0,0,1-.64.64.64.64,0,0,1-.63-.64.63.63,0,0,1,.63-.63A.64.64,0,0,1,207.9,248.73Z"/><circle class="cls-7" cx="172.34" cy="247.2" r="2.16"/><circle class="cls-6" cx="208.95" cy="219.23" r="2.29"/><circle class="cls-7" cx="208.95" cy="219.23" r="3.75"/><circle class="cls-7" cx="149.64" cy="215.18" r="1.63"/><path class="cls-5" d="M172.71,247.2a.38.38,0,1,1-.37-.38A.38.38,0,0,1,172.71,247.2Z"/><path class="cls-4" d="M210,219.23a1.07,1.07,0,1,1-1.07-1.07A1.07,1.07,0,0,1,210,219.23Z"/><path class="cls-7" d="M254,223.52a.76.76,0,1,1-.76-.76A.76.76,0,0,1,254,223.52Z"/><path class="cls-6" d="M239.45,251.46a.69.69,0,1,1-.69-.69A.69.69,0,0,1,239.45,251.46Z"/><circle class="cls-4" cx="207.26" cy="248.73" r="0.86"/><circle class="cls-7" cx="253.23" cy="223.52" r="1.52"/><path class="cls-6" d="M254.16,223.52a.93.93,0,1,1-.93-.93A.93.93,0,0,1,254.16,223.52Z"/><path class="cls-5" d="M210.79,219.23a1.84,1.84,0,1,1-1.84-1.84A1.85,1.85,0,0,1,210.79,219.23Z"/><circle class="cls-7" cx="207.26" cy="248.73" r="1.05"/><path class="cls-7" d="M254.55,223.52a1.32,1.32,0,1,1-1.32-1.32A1.32,1.32,0,0,1,254.55,223.52Z"/><path class="cls-7" d="M255.22,212.44a1.78,1.78,0,1,1-1.78-1.78A1.78,1.78,0,0,1,255.22,212.44Z"/><circle class="cls-6" cx="291.2" cy="265.55" r="0.68"/><path class="cls-4" d="M240.71,251.46a2,2,0,1,1-2-2A1.95,1.95,0,0,1,240.71,251.46Z"/><circle class="cls-7" cx="253.44" cy="212.44" r="3.02"/><path class="cls-7" d="M254.17,212.44a.73.73,0,1,1-.73-.74A.73.73,0,0,1,254.17,212.44Z"/><path class="cls-7" d="M256.84,223.52a3.61,3.61,0,1,1-3.61-3.61A3.61,3.61,0,0,1,256.84,223.52Z"/><path class="cls-7" d="M240,251.46a1.22,1.22,0,1,1-1.22-1.22A1.22,1.22,0,0,1,240,251.46Z"/><circle class="cls-7" cx="253.44" cy="212.44" r="2.36"/><path class="cls-6" d="M309.58,227.1a4,4,0,1,1-4-4A4,4,0,0,1,309.58,227.1Z"/><circle class="cls-4" cx="324.89" cy="245.66" r="0.75"/><path class="cls-7" d="M294.32,265.55a3.12,3.12,0,1,1-3.12-3.12A3.12,3.12,0,0,1,294.32,265.55Z"/><path class="cls-6" d="M306.19,227.1a.62.62,0,1,1-.61-.62A.61.61,0,0,1,306.19,227.1Z"/><circle class="cls-6" cx="305.58" cy="227.1" r="0.91"/><path class="cls-4" d="M254.31,212.44a.87.87,0,1,1-.87-.88A.87.87,0,0,1,254.31,212.44Z"/><path class="cls-7" d="M295.16,265.55a4,4,0,1,1-4-4A4,4,0,0,1,295.16,265.55Z"/><path class="cls-6" d="M306.77,227.1a1.2,1.2,0,1,1-1.19-1.2A1.19,1.19,0,0,1,306.77,227.1Z"/><path class="cls-6" d="M357.33,205.21a1.2,1.2,0,1,1-1.2-1.2A1.19,1.19,0,0,1,357.33,205.21Z"/><path class="cls-5" d="M338.2,249.22a.71.71,0,1,1-.71-.72A.71.71,0,0,1,338.2,249.22Z"/><circle class="cls-5" cx="324.89" cy="245.66" r="1.65"/><path class="cls-7" d="M357.76,205.21a1.63,1.63,0,1,1-1.63-1.63A1.63,1.63,0,0,1,357.76,205.21Z"/><path class="cls-7" d="M358.94,205.21a2.81,2.81,0,1,1-2.81-2.81A2.81,2.81,0,0,1,358.94,205.21Z"/><path class="cls-4" d="M308.27,227.1a2.69,2.69,0,1,1-2.69-2.69A2.69,2.69,0,0,1,308.27,227.1Z"/><circle class="cls-6" cx="324.89" cy="245.66" r="1.1"/><circle class="cls-6" cx="356.13" cy="205.21" r="2.05"/><path class="cls-4" d="M380,206.45a3,3,0,1,1-3-3A3,3,0,0,1,380,206.45Z"/><path class="cls-6" d="M390.07,253.42a2,2,0,1,1-2-2A2,2,0,0,1,390.07,253.42Z"/><circle class="cls-4" cx="337.49" cy="249.22" r="0.85"/><path class="cls-7" d="M378.47,206.45A1.44,1.44,0,1,1,377,205,1.44,1.44,0,0,1,378.47,206.45Z"/><path class="cls-7" d="M380.42,206.45a3.39,3.39,0,1,1-3.38-3.39A3.38,3.38,0,0,1,380.42,206.45Z"/><circle class="cls-5" cx="356.13" cy="205.21" r="2.93"/><path class="cls-5" d="M338.57,249.22a1.08,1.08,0,0,1-2.16,0,1.08,1.08,0,1,1,2.16,0Z"/><path class="cls-4" d="M377.92,206.45a.89.89,0,1,1-.88-.88A.87.87,0,0,1,377.92,206.45Z"/><path class="cls-4" d="M418.2,205.37a.74.74,0,1,1-.74-.73A.73.73,0,0,1,418.2,205.37Z"/><path class="cls-6" d="M414.71,255.47a1.6,1.6,0,1,1-1.6-1.59A1.6,1.6,0,0,1,414.71,255.47Z"/><path class="cls-6" d="M390.31,253.42a2.24,2.24,0,1,1-2.24-2.23A2.24,2.24,0,0,1,390.31,253.42Z"/><circle class="cls-7" cx="417.46" cy="205.37" r="1.22"/><path class="cls-6" d="M417.9,205.37a.44.44,0,0,1-.44.43.43.43,0,0,1,0-.86A.44.44,0,0,1,417.9,205.37Z"/><path class="cls-4" d="M378.78,206.45a1.74,1.74,0,1,1-1.74-1.74A1.74,1.74,0,0,1,378.78,206.45Z"/><path class="cls-5" d="M391.24,253.42a3.17,3.17,0,1,1-3.17-3.16A3.17,3.17,0,0,1,391.24,253.42Z"/><path class="cls-6" d="M419.47,205.37a2,2,0,1,1-2-2A2,2,0,0,1,419.47,205.37Z"/><path class="cls-6" d="M434.53,212.16a3.86,3.86,0,1,1-3.86-3.86A3.86,3.86,0,0,1,434.53,212.16Z"/><circle class="cls-5" cx="462.59" cy="259.68" r="2.25"/><path class="cls-4" d="M413.9,255.47a.79.79,0,1,1-.79-.78A.79.79,0,0,1,413.9,255.47Z"/><circle class="cls-7" cx="430.67" cy="212.16" r="0.91"/><path class="cls-7" d="M430.94,212.16a.27.27,0,1,1-.27-.27A.27.27,0,0,1,430.94,212.16Z"/><path class="cls-7" d="M420.35,205.37a2.89,2.89,0,1,1-2.89-2.88A2.89,2.89,0,0,1,420.35,205.37Z"/><circle class="cls-5" cx="413.11" cy="255.47" r="1.44"/><circle class="cls-7" cx="430.67" cy="212.16" r="0.38"/><circle class="cls-7" cx="494.18" cy="231.27" r="1.65"/><circle class="cls-6" cx="470.7" cy="256.28" r="1.99"/><circle class="cls-7" cx="462.59" cy="259.68" r="1.49"/><circle class="cls-4" cx="494.18" cy="231.27" r="0.55"/><circle class="cls-6" cx="494.18" cy="231.27" r="0.53"/><path class="cls-6" d="M431.24,212.16a.57.57,0,0,1-.57.57.58.58,0,1,1,0-1.15A.57.57,0,0,1,431.24,212.16Z"/><circle class="cls-5" cx="462.59" cy="259.68" r="0.45"/><path class="cls-6" d="M497.65,231.27a3.47,3.47,0,1,1-3.47-3.47A3.46,3.46,0,0,1,497.65,231.27Z"/><path class="cls-7" d="M503.69,212.84a3.06,3.06,0,1,1-3.06-3.06A3.06,3.06,0,0,1,503.69,212.84Z"/><circle class="cls-7" cx="470.7" cy="256.27" r="1.91"/><circle class="cls-6" cx="500.63" cy="212.84" r="2.34"/><path class="cls-6" d="M501.32,212.84a.7.7,0,1,1-.69-.69A.69.69,0,0,1,501.32,212.84Z"/><circle class="cls-4" cx="494.18" cy="231.27" r="1.77"/><circle class="cls-7" cx="470.7" cy="256.27" r="3.98"/><circle class="cls-5" cx="500.63" cy="212.84" r="3.26"/><path class="cls-5" d="M33.73,234.71a1.59,1.59,0,1,1-1.59-1.59A1.59,1.59,0,0,1,33.73,234.71Z"/><path class="cls-6" d="M32.69,234.71a.55.55,0,0,1-.55.55.55.55,0,0,1-.55-.55.55.55,0,0,1,.55-.55A.54.54,0,0,1,32.69,234.71Z"/><circle class="cls-7" cx="32.14" cy="234.71" r="2.08"/><path class="cls-7" d="M4,260.72a.26.26,0,0,1-.26.25.25.25,0,0,1-.25-.25.26.26,0,0,1,.25-.26A.26.26,0,0,1,4,260.72Z"/><circle class="cls-6" cx="32.14" cy="234.71" r="0.74"/><circle class="cls-6" cx="38.9" cy="264.48" r="2.05"/><path class="cls-6" d="M45.9,277.31A1.32,1.32,0,1,1,44.59,276,1.32,1.32,0,0,1,45.9,277.31Z"/><path class="cls-7" d="M42,264.49a3.13,3.13,0,1,1-3.12-3.13A3.12,3.12,0,0,1,42,264.49Z"/><circle class="cls-6" cx="38.9" cy="264.48" r="3.52"/><path class="cls-6" d="M34.51,234.71a2.37,2.37,0,1,1-2.37-2.37A2.37,2.37,0,0,1,34.51,234.71Z"/><path class="cls-4" d="M40,264.49a1.12,1.12,0,1,1-1.12-1.12A1.12,1.12,0,0,1,40,264.49Z"/><path class="cls-5" d="M88.58,240.57a.6.6,0,1,1-1.2,0,.6.6,0,0,1,1.2,0Z"/><circle class="cls-4" cx="82.25" cy="279.65" r="0.77"/><circle class="cls-5" cx="44.59" cy="277.31" r="1.7"/><path class="cls-7" d="M91.36,240.57A3.38,3.38,0,1,1,88,237.2,3.38,3.38,0,0,1,91.36,240.57Z"/><path class="cls-7" d="M88.9,240.57a.92.92,0,1,1-.92-.92A.92.92,0,0,1,88.9,240.57Z"/><circle class="cls-4" cx="38.9" cy="264.48" r="1.53"/><circle class="cls-4" cx="44.59" cy="277.31" r="1.38"/><path class="cls-4" d="M90.5,240.57A2.52,2.52,0,1,1,88,238.06,2.52,2.52,0,0,1,90.5,240.57Z"/><path class="cls-5" d="M121.7,245.69a.67.67,0,0,1-.67.66.67.67,0,0,1,0-1.33A.67.67,0,0,1,121.7,245.69Z"/><path class="cls-6" d="M111.33,287.43a.5.5,0,0,1-.5.5.5.5,0,1,1,0-1A.5.5,0,0,1,111.33,287.43Z"/><circle class="cls-7" cx="82.25" cy="279.65" r="1.51"/><path class="cls-7" d="M121.65,245.69a.62.62,0,0,1-1.24,0,.62.62,0,0,1,1.24,0Z"/><circle class="cls-4" cx="121.03" cy="245.69" r="1.98"/><path class="cls-6" d="M91.08,240.57a3.1,3.1,0,1,1-3.1-3.1A3.1,3.1,0,0,1,91.08,240.57Z"/><circle class="cls-6" cx="82.25" cy="279.65" r="3.47"/><path class="cls-7" d="M122.62,245.69A1.59,1.59,0,1,1,121,244.1,1.59,1.59,0,0,1,122.62,245.69Z"/><circle class="cls-6" cx="172.34" cy="247.2" r="0.6"/><circle class="cls-7" cx="110.83" cy="287.43" r="0.26"/><path class="cls-7" d="M175.56,247.2a3.22,3.22,0,1,1-3.22-3.22A3.22,3.22,0,0,1,175.56,247.2Z"/><path class="cls-7" d="M174.39,247.2a2.06,2.06,0,1,1-2-2A2.05,2.05,0,0,1,174.39,247.2Z"/><path class="cls-5" d="M121.83,245.69a.8.8,0,0,1-1.6,0,.8.8,0,1,1,1.6,0Z"/><path class="cls-6" d="M114.07,287.43a3.24,3.24,0,1,1-3.24-3.24A3.24,3.24,0,0,1,114.07,287.43Z"/><path class="cls-4" d="M174.17,247.2a1.84,1.84,0,1,1-1.83-1.84A1.83,1.83,0,0,1,174.17,247.2Z"/><path class="cls-6" d="M208.84,248.73a1.58,1.58,0,1,1-1.58-1.57A1.58,1.58,0,0,1,208.84,248.73Z"/><path class="cls-7" d="M200.43,274a1,1,0,1,1-1-1A1,1,0,0,1,200.43,274Z"/><circle class="cls-6" cx="207.26" cy="248.73" r="0.54"/><circle class="cls-7" cx="207.26" cy="248.73" r="1.18"/><path class="cls-7" d="M174.61,247.2a2.28,2.28,0,1,1-2.27-2.28A2.28,2.28,0,0,1,174.61,247.2Z"/><circle class="cls-4" cx="207.26" cy="248.73" r="1.91"/><path class="cls-7" d="M240,251.46a1.23,1.23,0,1,1-1.23-1.23A1.23,1.23,0,0,1,240,251.46Z"/><path class="cls-6" d="M224.64,271.39a2.09,2.09,0,1,1-2.08-2.08A2.09,2.09,0,0,1,224.64,271.39Z"/><path class="cls-6" d="M200.79,274a1.34,1.34,0,1,1-1.34-1.34A1.34,1.34,0,0,1,200.79,274Z"/><path class="cls-5" d="M240.51,251.46a1.75,1.75,0,1,1-1.75-1.75A1.75,1.75,0,0,1,240.51,251.46Z"/><path class="cls-7" d="M241.05,251.46a2.29,2.29,0,1,1-2.29-2.28A2.3,2.3,0,0,1,241.05,251.46Z"/><circle class="cls-4" cx="207.26" cy="248.73" r="0.93"/><circle class="cls-7" cx="199.45" cy="273.95" r="1.54"/><path class="cls-7" d="M239.59,251.46a.83.83,0,1,1-1.66,0,.83.83,0,0,1,1.66,0Z"/><path class="cls-4" d="M291.79,265.55a.59.59,0,1,1-.59-.6A.59.59,0,0,1,291.79,265.55Z"/><path class="cls-5" d="M267.58,286.14a.92.92,0,1,1-.92-.92A.92.92,0,0,1,267.58,286.14Z"/><circle class="cls-6" cx="222.56" cy="271.39" r="0.53"/><circle class="cls-6" cx="291.2" cy="265.55" r="1.09"/><circle class="cls-4" cx="291.2" cy="265.55" r="2.62"/><path class="cls-7" d="M239.92,251.46a1.16,1.16,0,1,1-1.16-1.16A1.16,1.16,0,0,1,239.92,251.46Z"/><path class="cls-4" d="M223.8,271.39a1.24,1.24,0,1,1-1.24-1.23A1.24,1.24,0,0,1,223.8,271.39Z"/><path class="cls-6" d="M292.48,265.55a1.29,1.29,0,0,1-2.57,0,1.29,1.29,0,1,1,2.57,0Z"/><circle class="cls-7" cx="324.89" cy="245.66" r="1.22"/><path class="cls-7" d="M289,291.55a3.67,3.67,0,1,1-3.67-3.67A3.67,3.67,0,0,1,289,291.55Z"/><circle class="cls-4" cx="266.66" cy="286.14" r="0.87"/><path class="cls-5" d="M326.63,245.66a1.75,1.75,0,1,1-1.74-1.74A1.74,1.74,0,0,1,326.63,245.66Z"/><circle class="cls-5" cx="324.89" cy="245.66" r="0.57"/><path class="cls-7" d="M293.39,265.55a2.19,2.19,0,1,1-2.19-2.19A2.19,2.19,0,0,1,293.39,265.55Z"/><path class="cls-6" d="M267.37,286.14a.71.71,0,1,1-.71-.7A.7.7,0,0,1,267.37,286.14Z"/><circle class="cls-6" cx="324.89" cy="245.66" r="2.67"/><circle class="cls-6" cx="337.49" cy="249.22" r="0.33"/><path class="cls-7" d="M356.94,279.94a.56.56,0,1,1-1.12,0,.56.56,0,1,1,1.12,0Z"/><path class="cls-7" d="M338.52,249.22a1,1,0,0,1-2.07,0,1,1,0,1,1,2.07,0Z"/><circle class="cls-6" cx="337.49" cy="249.22" r="1.88"/><circle class="cls-7" cx="324.89" cy="245.66" r="0.79"/><path class="cls-7" d="M289,291.55a3.63,3.63,0,1,1-3.63-3.63A3.63,3.63,0,0,1,289,291.55Z"/><path class="cls-7" d="M338.69,249.22a1.2,1.2,0,1,1-1.2-1.21A1.2,1.2,0,0,1,338.69,249.22Z"/><circle class="cls-6" cx="388.07" cy="253.42" r="0.64"/><path class="cls-6" d="M371.65,274.88a2,2,0,1,1-2-2A2,2,0,0,1,371.65,274.88Z"/><path class="cls-6" d="M357.35,279.94a1,1,0,1,1-1-1A1,1,0,0,1,357.35,279.94Z"/><path class="cls-6" d="M389.88,253.42a1.81,1.81,0,1,1-1.8-1.8A1.81,1.81,0,0,1,389.88,253.42Z"/><path class="cls-7" d="M390.14,253.42a2.07,2.07,0,1,1-2.07-2.07A2.07,2.07,0,0,1,390.14,253.42Z"/><path class="cls-5" d="M338.27,249.22a.78.78,0,1,1-.78-.78A.78.78,0,0,1,338.27,249.22Z"/><path class="cls-6" d="M359.39,279.94a3,3,0,1,1-3-3A3,3,0,0,1,359.39,279.94Z"/><path class="cls-6" d="M390.69,253.42a2.62,2.62,0,1,1-2.61-2.61A2.61,2.61,0,0,1,390.69,253.42Z"/><path class="cls-6" d="M413.47,255.47a.36.36,0,1,1-.72,0,.36.36,0,1,1,.72,0Z"/><path class="cls-7" d="M418.88,266.85a.6.6,0,1,1-.6-.6A.6.6,0,0,1,418.88,266.85Z"/><path class="cls-7" d="M371.72,274.88a2.07,2.07,0,1,1-2.07-2.06A2.07,2.07,0,0,1,371.72,274.88Z"/><circle class="cls-7" cx="413.11" cy="255.47" r="1.45"/><circle class="cls-7" cx="413.11" cy="255.47" r="0.62"/><circle class="cls-7" cx="388.07" cy="253.42" r="0.59"/><path class="cls-4" d="M372.31,274.88a2.66,2.66,0,1,1-2.66-2.65A2.65,2.65,0,0,1,372.31,274.88Z"/><path class="cls-6" d="M414.55,255.47a1.44,1.44,0,1,1-1.44-1.44A1.43,1.43,0,0,1,414.55,255.47Z"/><circle class="cls-7" cx="462.59" cy="259.68" r="1.37"/><path class="cls-7" d="M420,266.85a1.67,1.67,0,1,1-1.67-1.68A1.67,1.67,0,0,1,420,266.85Z"/><path class="cls-7" d="M463.26,259.68a.67.67,0,0,1-1.34,0,.67.67,0,1,1,1.34,0Z"/><path class="cls-6" d="M465,259.68a2.4,2.4,0,1,1-2.4-2.41A2.4,2.4,0,0,1,465,259.68Z"/><path class="cls-6" d="M414.71,255.47a1.6,1.6,0,1,1-1.6-1.6A1.6,1.6,0,0,1,414.71,255.47Z"/><circle class="cls-5" cx="418.28" cy="266.85" r="1.23"/><path class="cls-6" d="M464.43,259.68a1.85,1.85,0,1,1-1.84-1.85A1.84,1.84,0,0,1,464.43,259.68Z"/><path class="cls-6" d="M472.79,256.27a2.09,2.09,0,1,1-2.09-2.09A2.1,2.1,0,0,1,472.79,256.27Z"/><path class="cls-7" d="M464.48,270a2.35,2.35,0,1,1-2.35-2.35A2.36,2.36,0,0,1,464.48,270Z"/><path class="cls-6" d="M471.53,256.27a.83.83,0,0,1-.83.84.84.84,0,1,1,0-1.67A.83.83,0,0,1,471.53,256.27Z"/><circle class="cls-6" cx="470.7" cy="256.27" r="1.65"/><circle class="cls-7" cx="462.59" cy="259.68" r="1.15"/><path class="cls-7" d="M471.74,256.27a1,1,0,1,1-1-1A1,1,0,0,1,471.74,256.27Z"/><path class="cls-7" d="M498.64,278.16a1.72,1.72,0,1,1-1.72-1.72A1.72,1.72,0,0,1,498.64,278.16Z"/><path class="cls-4" d="M463,270a.88.88,0,1,1-.88-.88A.87.87,0,0,1,463,270Z"/><path class="cls-6" d="M472.42,256.27a1.72,1.72,0,1,1-1.72-1.71A1.72,1.72,0,0,1,472.42,256.27Z"/><path class="cls-5" d="M464.59,270a2.47,2.47,0,1,1-2.46-2.46A2.47,2.47,0,0,1,464.59,270Z"/><path class="cls-7" d="M47.09,277.31a2.5,2.5,0,1,1-2.5-2.5A2.5,2.5,0,0,1,47.09,277.31Z"/><circle class="cls-5" cx="44.59" cy="277.31" r="2.5"/><path class="cls-5" d="M45,277.31a.4.4,0,1,1-.4-.4A.4.4,0,0,1,45,277.31Z"/><circle class="cls-6" cx="44.59" cy="277.31" r="2.13"/><circle class="cls-4" cx="82.25" cy="279.65" r="2.2"/><path class="cls-4" d="M82.85,279.65a.61.61,0,1,1-.6-.61A.6.6,0,0,1,82.85,279.65Z"/><circle class="cls-6" cx="82.25" cy="279.65" r="1"/><path class="cls-6" d="M48.09,277.31a3.5,3.5,0,1,1-3.5-3.5A3.51,3.51,0,0,1,48.09,277.31Z"/><circle class="cls-7" cx="82.25" cy="279.65" r="1.98"/><circle class="cls-5" cx="110.83" cy="287.43" r="3.35"/><path class="cls-4" d="M111.61,287.43a.78.78,0,1,1-.78-.78A.78.78,0,0,1,111.61,287.43Z"/><path class="cls-7" d="M111.37,287.43a.54.54,0,0,1-.54.54.55.55,0,0,1-.55-.54.55.55,0,0,1,.55-.55A.55.55,0,0,1,111.37,287.43Z"/><circle class="cls-5" cx="82.25" cy="279.65" r="0.64"/><path class="cls-7" d="M111.36,287.43a.53.53,0,1,1-.53-.53A.53.53,0,0,1,111.36,287.43Z"/><path class="cls-4" d="M111.52,287.43a.7.7,0,1,1-.69-.7A.7.7,0,0,1,111.52,287.43Z"/><circle class="cls-7" cx="199.45" cy="273.95" r="1.39"/><path class="cls-6" d="M200.39,274a.95.95,0,1,1-.94-.94A.94.94,0,0,1,200.39,274Z"/><path class="cls-7" d="M201.63,274a2.18,2.18,0,1,1-2.18-2.17A2.18,2.18,0,0,1,201.63,274Z"/><path class="cls-6" d="M203.13,274a3.69,3.69,0,1,1-3.68-3.68A3.69,3.69,0,0,1,203.13,274Z"/><path class="cls-6" d="M223.78,271.39a1.22,1.22,0,1,1-1.22-1.22A1.22,1.22,0,0,1,223.78,271.39Z"/><circle class="cls-6" cx="222.56" cy="271.39" r="1.44"/><path class="cls-5" d="M223.34,271.39a.79.79,0,1,1-.78-.78A.78.78,0,0,1,223.34,271.39Z"/><circle class="cls-7" cx="199.45" cy="273.95" r="0.51"/><circle class="cls-7" cx="222.56" cy="271.39" r="0.74"/><circle class="cls-5" cx="266.66" cy="286.14" r="0.94"/><path class="cls-6" d="M267.89,286.14a1.23,1.23,0,1,1-1.23-1.22A1.22,1.22,0,0,1,267.89,286.14Z"/><path class="cls-4" d="M267.43,286.14a.77.77,0,1,1-.77-.76A.76.76,0,0,1,267.43,286.14Z"/><path class="cls-7" d="M223.52,271.39a1,1,0,1,1-1-1A1,1,0,0,1,223.52,271.39Z"/><path class="cls-7" d="M267.19,286.14a.53.53,0,0,1-.53.53.53.53,0,0,1,0-1.06A.53.53,0,0,1,267.19,286.14Z"/><path class="cls-6" d="M267.67,286.14a1,1,0,1,1-1-1A1,1,0,0,1,267.67,286.14Z"/><path class="cls-6" d="M357.51,279.94a1.13,1.13,0,1,1-1.13-1.12A1.13,1.13,0,0,1,357.51,279.94Z"/><path class="cls-5" d="M357.27,279.94a.9.9,0,1,1-.89-.89A.89.89,0,0,1,357.27,279.94Z"/><path class="cls-7" d="M358.09,279.94a1.71,1.71,0,1,1-1.71-1.71A1.71,1.71,0,0,1,358.09,279.94Z"/><path class="cls-5" d="M359.17,279.94a2.79,2.79,0,1,1-2.79-2.79A2.79,2.79,0,0,1,359.17,279.94Z"/><path class="cls-7" d="M370.08,274.88a.43.43,0,1,1-.43-.42A.42.42,0,0,1,370.08,274.88Z"/><path class="cls-6" d="M370.25,274.88a.59.59,0,0,1-.59.6.6.6,0,1,1,0-1.2A.59.59,0,0,1,370.25,274.88Z"/><circle class="cls-7" cx="369.65" cy="274.88" r="0.81"/><path class="cls-6" d="M358,279.94a1.61,1.61,0,1,1-1.61-1.61A1.61,1.61,0,0,1,358,279.94Z"/><circle class="cls-7" cx="369.66" cy="274.88" r="1.73"/><path class="cls-6" d="M419.4,266.85a1.12,1.12,0,1,1-1.12-1.12A1.12,1.12,0,0,1,419.4,266.85Z"/><path class="cls-7" d="M420.52,266.85a2.24,2.24,0,1,1-2.24-2.24A2.24,2.24,0,0,1,420.52,266.85Z"/><path class="cls-5" d="M419.21,266.85a.93.93,0,1,1-.93-.93A.93.93,0,0,1,419.21,266.85Z"/><circle class="cls-7" cx="369.65" cy="274.88" r="1.9"/><circle class="cls-6" cx="418.28" cy="266.85" r="1.39"/><circle class="cls-7" cx="418.28" cy="266.85" r="1.96"/><path class="cls-4" d="M464.45,270a2.32,2.32,0,1,1-2.32-2.32A2.32,2.32,0,0,1,464.45,270Z"/><circle class="cls-4" cx="462.13" cy="269.97" r="1.07"/><path class="cls-7" d="M462.59,270a.46.46,0,0,1-.92,0,.46.46,0,1,1,.92,0Z"/><circle class="cls-7" cx="462.13" cy="269.97" r="1.08"/><path class="cls-6" d="M498.38,278.16a1.47,1.47,0,0,1-2.93,0,1.47,1.47,0,1,1,2.93,0Z"/><path class="cls-7" d="M497.68,278.16a.76.76,0,0,1-.76.76.76.76,0,1,1,0-1.52A.76.76,0,0,1,497.68,278.16Z"/><path class="cls-7" d="M498.28,278.16a1.36,1.36,0,1,1-1.36-1.36A1.36,1.36,0,0,1,498.28,278.16Z"/><path class="cls-6" d="M465.7,270a3.57,3.57,0,1,1-3.57-3.57A3.57,3.57,0,0,1,465.7,270Z"/><circle class="cls-6" cx="496.92" cy="278.16" r="1.71"/><rect class="cls-1" width="504" height="288"/></g></svg>