<svg xmlns="http://www.w3.org/2000/svg" viewBox="0 0 438.4 448"><defs><style>.cls-1{fill:#fff;}</style></defs><title>logo</title><g id="Layer_2" data-name="Layer 2"><g id="Layer_1-2" data-name="Layer 1"><path class="cls-1" d="M219.18,224.86l32.89-67.34L219.2,90.22l-32.87,67.32Z"/><path class="cls-1" d="M171.2,48h-8v62.16l8,16.38Z"/><path class="cls-1" d="M196.54,20.44a8,8,0,0,1,0-8.88L204.26,0H163.2V32h41.06Z"/><path class="cls-1" d="M155.2,208a8,8,0,0,1,7.25,4.62l30.64,65.66,17.19-35.2L155.2,130.23,0,448H38.11L148,212.62A8,8,0,0,1,155.2,208Z"/><path class="cls-1" d="M283.2,130.22,200.11,300.35a8,8,0,0,1-14.45-.13L155.2,234.91,55.76,448H438.4Z"/></g></g></svg>