<svg id="Capa_1" data-name="Capa 1" xmlns="http://www.w3.org/2000/svg" viewBox="0 0 480 480"><defs><style>.cls-1,.cls-2{fill:#ee4540;}.cls-2{font-size:74.66px;font-family:BerlinSansFBDemi-Bold, Berlin Sans FB Demi;font-weight:700;letter-spacing:1em;}</style></defs><title>main-logo</title><path class="cls-1" d="M194,24.92h28.34l-5.31,8a5.52,5.52,0,0,0,0,6.13l5.31,8H194Z"/><polygon class="cls-1" points="232.59 87.11 255.28 133.51 232.59 179.98 209.98 133.51 232.59 87.11"/><path class="cls-1" d="M81.46,333.81l107-219.12,38,77.77L214.6,216.73l-21.1-45.3a5.55,5.55,0,0,0-7.31-2.68,5.65,5.65,0,0,0-2.69,2.68L107.73,333.81Z"/><path class="cls-1" d="M119.93,333.81l68.54-146.93,21,45a5.45,5.45,0,0,0,5,3.17,5.57,5.57,0,0,0,5-3.1l57.23-117.28,107,219.12Z"/><text class="cls-2" transform="translate(31 444.9) scale(0.76 1)">TOURS</text></svg>