<svg id="Layer_1" data-name="Layer 1" xmlns="http://www.w3.org/2000/svg" viewBox="0 0 800 300"><defs><style>.cls-1{font-size:132.68px;fill:#fff;font-family:Poppins-Black, Poppins;font-weight:800;}.cls-2{fill:#ee4540;}</style></defs><title>main-logo</title><text class="cls-1" transform="translate(318.52 242.97)">TOURS</text><path class="cls-2" d="M136.71,14.73H161.5l-4.65,7a4.8,4.8,0,0,0,0,5.36l4.65,7H136.71Z"/><polygon class="cls-2" points="170.53 69.22 190.38 109.85 170.53 150.52 150.69 109.86 170.53 69.22"/><path class="cls-2" d="M38.16,285.27l93.72-191.9,33.26,68.15-10.38,21.26-18.5-39.65a4.83,4.83,0,0,0-8.76,0L61.17,285.27Z"/><path class="cls-2" d="M71.83,285.27l60.05-128.68L150.29,196a4.83,4.83,0,0,0,4.34,2.79,4.91,4.91,0,0,0,4.39-2.71L209.18,93.37l93.72,191.9Z"/></svg>